<svg width="320" height="779" viewBox="0 0 320 779" fill="none" xmlns="http://www.w3.org/2000/svg">
<g opacity="0.3">
<path d="M-23.2859 589.258C-26.7837 588.165 -29.9837 586.625 -32.8477 584.653C-38.8534 580.516 -43.4355 574.445 -46.4665 566.607C-49.7253 558.185 -51.2214 547.629 -50.9156 535.233C-50.2999 510.318 -43.3601 482.419 -36.6489 455.438C-35.3315 450.14 -33.9691 444.662 -32.6867 439.334C-23.9524 403.019 -18.674 370.468 -16.5482 339.82C-12.3081 278.683 -19.4273 223.151 -37.138 179.226C-57.6211 128.429 -89.3474 96.397 -126.474 89.0309C-148.296 84.7028 -184.862 96.9814 -212.528 128.824C-228.948 147.722 -239.64 171.048 -243.446 196.276L-243.612 196.336C-241.615 183.105 -237.77 170.417 -232.183 158.625C-227.057 147.808 -220.466 137.728 -212.592 128.666C-200.069 114.251 -184.713 102.807 -168.183 95.5682C-152.909 88.8803 -138.064 86.4738 -126.38 88.7917C-106.952 92.6483 -89.0452 103.166 -73.1604 120.057C-58.7615 135.37 -46.5883 155.215 -36.9801 179.044C-19.2585 222.994 -12.134 278.557 -16.3775 339.73C-18.5059 370.398 -23.7873 402.967 -32.5255 439.302C-33.8066 444.63 -35.1701 450.111 -36.4887 455.408C-43.196 482.369 -50.1304 510.249 -50.7442 535.127C-51.3391 559.19 -45.2752 575.775 -32.722 584.421C-15.3382 596.395 13.9606 591.877 45.6519 572.332C91.3211 544.169 135.259 496.131 177.751 449.677C185.199 441.534 192.9 433.114 200.424 425.011C219.961 403.969 245.819 376.873 272.584 353.898C299.942 330.416 324.326 314.502 347.133 305.246C361.093 299.58 374.421 296.989 386.746 297.546C398.131 298.058 409.032 301.277 419.147 307.108C436.498 317.112 452.159 334.946 467.027 361.626C496.3 414.163 522.01 474.861 543.443 542.037C563.814 605.886 580.509 676.148 593.068 750.867L592.901 751.012C566.87 596.123 524.47 465.18 466.876 361.818C434.338 303.422 396.28 285.517 347.105 305.473C297.076 325.774 247.07 375.002 200.481 425.175C192.959 433.276 185.258 441.696 177.81 449.839C135.305 496.31 91.3531 544.363 45.6525 572.545C30.8842 581.653 16.0637 587.725 2.79509 590.103C-4.21435 591.36 -10.7378 591.575 -16.5965 590.743C-18.9345 590.419 -21.1656 589.921 -23.2859 589.258Z" fill="#FFE492"/>
<path d="M-14.2259 577.201C-23.1456 574.413 -30.144 568.889 -35.0336 560.776C-40.4859 551.729 -43.2811 539.478 -43.3439 524.364C-43.3488 523.026 -43.3326 521.648 -43.2948 520.267C-42.6256 495.478 -36.0315 467.862 -29.6526 441.154C-28.3647 435.756 -27.0309 430.174 -25.7782 424.744C-18.3206 392.411 -13.579 363.341 -11.2864 335.877C-11.0047 332.496 -10.7565 329.097 -10.552 325.774C-6.80076 265.021 -14.3977 210.015 -32.521 166.7C-53.5602 116.487 -85.7466 85.2253 -123.152 78.6758C-145.029 74.8755 -181.614 87.536 -209.216 119.088C-225.744 137.981 -236.705 161.276 -240.918 186.454L-241.083 186.509C-238.875 173.312 -234.858 160.652 -229.143 148.884C-223.894 138.076 -217.212 127.998 -209.28 118.929C-196.712 104.561 -181.376 93.092 -164.933 85.7622C-149.735 78.9868 -134.866 76.3857 -123.064 78.4377C-103.477 81.8676 -85.3712 91.9777 -69.2482 108.486C-54.6446 123.44 -42.2358 142.965 -32.3667 166.52C-14.2326 209.859 -6.6328 264.899 -10.385 325.685C-10.5905 329.01 -10.8383 332.413 -11.121 335.796C-13.4153 363.278 -18.1588 392.363 -25.6208 424.713C-26.8722 430.143 -28.2059 435.726 -29.4949 441.126C-35.868 467.817 -42.4582 495.413 -43.1265 520.168C-43.1636 521.544 -43.1798 522.922 -43.1752 524.257C-43.0491 555.497 -31.4442 571.818 -14.184 577.214C-14.0892 577.244 -13.9959 577.273 -13.9012 577.303C-14.0084 577.266 -14.1177 577.235 -14.2259 577.201ZM-10.4736 578.188C6.18617 581.777 27.3331 576.274 48.3645 564.828C93.7914 539.997 138.65 493.735 182.032 448.997C183.819 447.153 185.605 445.313 187.39 443.474C191.309 439.435 195.952 434.656 200.662 429.846C221.786 408.28 246.852 383.339 272.597 361.885C299.989 339.057 324.3 323.362 346.918 313.9C360.811 308.096 374.139 305.115 386.532 305.039C398.014 304.968 409.075 307.391 419.405 312.239C437.249 320.617 453.555 336.326 469.256 360.268C484.574 383.585 496.329 404.7 506.248 426.72C520.29 457.937 531.636 492.395 540.885 521.984C562.317 590.93 579.708 667.048 592.574 748.225L592.408 748.367C579.544 667.202 562.155 591.09 540.725 522.152C531.478 492.566 520.134 458.115 506.095 426.906C496.178 404.892 484.426 383.783 469.11 360.472C434.908 308.316 396.071 293.589 346.889 314.13C295.829 335.486 244.663 385.148 200.711 430.021C196 434.83 191.359 439.608 187.439 443.648C185.655 445.486 183.869 447.328 182.081 449.172C138.685 493.924 93.8105 540.202 48.3509 565.052C37.0944 571.178 26.102 575.403 15.6785 577.607C5.97781 579.654 -2.80028 579.848 -10.4736 578.188Z" fill="#FFE492"/>
<path d="M-4.93756 565.556C-6.01058 565.221 -7.05972 564.847 -8.08261 564.435C-16.7012 560.967 -23.4268 554.848 -28.0698 546.243C-33.1477 536.832 -35.7254 524.439 -35.7288 509.405C-35.7273 508.066 -35.7074 506.687 -35.6668 505.307C-34.9452 480.656 -28.6946 453.329 -22.6495 426.905C-21.3896 421.397 -20.0869 415.701 -18.8663 410.16C-11.7331 377.843 -7.26412 348.932 -5.20614 321.775C-4.95275 318.417 -4.7319 315.038 -4.55372 311.734C-1.29239 251.368 -9.36701 196.887 -27.9028 154.182C-49.497 104.554 -82.1425 74.0602 -119.828 68.327C-141.067 65.1461 -177.052 76.62 -205.871 109.325C-222.521 128.22 -233.765 151.498 -238.388 176.641L-238.551 176.689C-236.129 163.516 -231.935 150.879 -226.088 139.129C-220.71 128.321 -213.929 118.242 -205.933 109.167C-193.322 94.8552 -178.013 83.3719 -161.66 75.9554C-146.543 69.0991 -131.655 66.3072 -119.741 68.0912C-99.9968 71.0972 -81.6897 80.797 -65.3299 96.9218C-50.5212 111.52 -37.877 130.723 -27.7486 154.002C-9.20287 196.734 -1.12443 251.245 -4.38668 311.645C-4.56586 314.952 -4.78538 318.331 -5.04078 321.694C-7.10074 348.866 -11.5727 377.794 -18.7103 410.129C-19.9319 415.672 -21.2345 421.369 -22.4945 426.876C-28.5349 453.285 -34.7815 480.593 -35.5029 505.214C-35.5434 506.595 -35.565 507.97 -35.5645 509.305C-35.5502 570.392 7.96581 577.437 51.0834 557.323C96.486 535.924 142.616 491.19 187.227 447.929L187.685 447.485C192.008 443.291 196.476 438.956 200.907 434.682C247.654 389.59 297.42 343.788 346.712 322.553C360.542 316.61 373.873 313.238 386.33 312.531C397.917 311.873 409.136 313.501 419.674 317.369C438.048 324.113 454.999 337.7 471.497 358.908C488.858 381.144 500.861 400.346 510.416 421.173C524.01 450.892 534.333 486.303 543.44 517.546C563.588 587.407 579.957 664.128 592.093 745.573L591.927 745.713C579.792 664.276 563.424 587.563 543.28 517.708C534.173 486.471 523.853 451.066 510.262 421.356C500.712 400.536 488.712 381.34 471.357 359.112C435.596 313.141 395.982 301.595 346.687 322.776C297.427 343.998 247.682 389.779 200.952 434.855C196.521 439.13 192.052 443.466 187.73 447.658L187.272 448.102C165.041 469.66 142.054 491.952 119.314 511.174C93.7595 532.775 71.4345 547.942 51.0628 557.542C29.8049 567.458 10.0887 570.253 -4.93756 565.556Z" fill="#FFE492"/>
<path d="M591.438 743.054C580.031 661.344 564.684 584.031 545.825 513.262C545.018 510.283 544.214 507.29 543.405 504.289C535.187 473.749 526.689 442.171 514.422 415.804C502.498 390.278 487.093 372.134 473.596 357.752C436.406 317.9 396.013 309.534 346.477 331.419C295.583 353.986 243.241 401.505 201.185 439.69C198.66 441.981 196.137 444.279 193.609 446.578C191.744 448.275 189.877 449.973 188.012 451.668C164.054 473.436 142.434 492.835 120.452 509.832C95.3408 529.248 73.528 542.398 53.7636 550.035C35.2408 557.193 18.0985 558.685 4.56638 554.457C2.10101 553.687 -0.242225 552.728 -2.4549 551.576C-10.5335 547.374 -16.8154 540.697 -21.1252 531.731C-25.8284 521.948 -28.1845 509.403 -28.1305 494.443C-28.124 493.103 -28.099 491.723 -28.0547 490.341C-27.2796 465.837 -21.3732 438.815 -15.6608 412.683C-14.4303 407.055 -13.1577 401.232 -11.9669 395.567C-5.15909 363.257 -0.9631 334.503 0.863965 307.662C1.09104 304.323 1.28225 300.967 1.43446 297.683C4.20451 237.703 -4.34645 183.749 -23.2925 141.652C-45.4416 92.6074 -78.5467 62.8875 -116.509 57.9635C-142.498 54.6802 -177.857 71.7672 -202.497 99.513C-219.284 118.416 -230.821 141.688 -235.862 166.812L-236.024 166.854C-233.385 153.699 -229.01 141.076 -223.023 129.335C-217.51 118.524 -210.625 108.437 -202.559 99.3528C-189.908 85.1062 -174.629 73.6137 -158.376 66.121C-143.343 59.1903 -128.444 56.2079 -116.423 57.7273C-96.521 60.307 -78.0153 69.5983 -61.4187 85.34C-46.4062 99.5816 -33.5251 118.466 -23.1362 141.467C-4.17794 183.589 4.37683 237.574 1.60486 297.59C1.45299 300.876 1.2608 304.235 1.03372 307.574C-0.793974 334.431 -4.99333 363.2 -11.8031 395.525C-12.995 401.193 -14.2665 407.013 -15.498 412.644C-21.207 438.76 -27.1092 465.766 -27.884 490.241C-27.9273 491.62 -27.9526 492.997 -27.9595 494.335C-28.1924 558.683 15.9376 564.432 53.797 549.804C98.9675 532.349 146.254 489.387 187.977 451.481C189.843 449.784 191.709 448.086 193.574 446.391C196.1 444.092 198.625 441.795 201.15 439.503C225.156 417.708 248.688 396.591 272.64 377.841C300.185 356.278 324.346 341.02 346.503 331.194C360.276 325.108 373.606 321.345 386.121 320.013C397.819 318.765 409.196 319.6 419.938 322.49C438.883 327.588 456.48 339.054 473.733 357.54C487.234 371.928 502.646 390.08 514.576 415.621C526.85 441.998 535.348 473.585 543.568 504.13C544.376 507.131 545.182 510.124 545.989 513.104C564.85 583.878 580.197 661.2 591.605 742.917L591.438 743.054Z" fill="#FFE492"/>
<path d="M590.954 740.398C580.069 656.858 565.746 578.942 548.377 508.818C547.337 504.622 546.286 500.303 545.268 496.128C537.979 466.224 530.442 435.302 518.588 410.253C506.722 385.306 490.322 369.025 475.842 356.391C437.378 322.577 396.206 317.389 346.272 340.064C298.594 361.809 251.24 402.118 205.446 441.099L200.418 445.378C196.446 448.759 192.341 452.252 188.301 455.676C142.597 494.379 98.126 530.142 56.4737 542.524C46.3662 545.529 36.7673 546.8 27.9385 546.308C18.4587 545.777 10.1321 543.208 3.18975 538.672C-4.35026 533.745 -10.1896 526.52 -14.1655 517.199C-18.4926 507.055 -20.6305 494.363 -20.5189 479.48C-20.5066 478.133 -20.4766 476.752 -20.4293 475.374C-19.604 451.032 -14.04 424.328 -8.65857 398.502C-7.45785 392.739 -6.21681 386.779 -5.05609 380.978C1.42185 348.671 5.34758 320.074 6.94442 293.555C7.14352 290.241 7.30843 286.903 7.43298 283.638C9.7131 224.044 0.685804 170.616 -18.6731 129.127C-41.3805 80.6703 -74.9447 51.7187 -113.188 47.6082C-139.181 44.9188 -174.503 62.2143 -199.083 89.6704C-216.02 108.588 -227.864 131.867 -233.334 156.992L-233.496 157.03C-230.634 143.883 -226.073 131.265 -219.942 119.529C-214.289 108.709 -207.292 98.6093 -199.147 89.5122C-186.457 75.339 -171.217 63.8503 -155.071 56.2867C-140.127 49.2856 -125.224 46.1211 -113.105 47.3734C-93.0455 49.5293 -74.3403 58.4098 -57.5056 73.7687C-42.288 87.6544 -29.1716 106.216 -18.5219 128.943C0.848898 170.455 9.88035 223.916 7.59932 283.543C7.47376 286.811 7.3092 290.152 7.1101 293.465C5.51363 319.999 1.58592 348.61 -4.89637 380.934C-6.05709 386.736 -7.29912 392.699 -8.49984 398.461C-13.8779 424.272 -19.4396 450.964 -20.2633 475.277C-20.3099 476.65 -20.339 478.029 -20.3526 479.375C-20.828 542.752 19.0419 553.432 56.5136 542.292C98.1322 529.921 142.586 494.171 188.27 455.486C192.309 452.062 196.415 448.568 200.386 445.187L205.415 440.908C227.893 421.775 251.137 401.987 274.784 384.214C301.567 364.084 324.958 349.569 346.293 339.837C360.016 333.605 373.347 329.452 385.915 327.495C397.731 325.654 409.267 325.693 420.203 327.61C439.773 331.04 458.012 340.383 475.97 356.171C490.456 368.812 506.866 385.099 518.739 410.066C530.601 435.126 538.14 466.057 545.43 495.969C546.448 500.144 547.5 504.461 548.539 508.658C565.91 578.789 580.235 656.711 591.119 740.258L590.954 740.398Z" fill="#FFE492"/>
<path d="M590.467 737.741C580.274 653.527 566.97 575.01 550.925 504.374C549.719 499.066 548.51 493.56 547.341 488.237C540.896 458.895 534.232 428.554 522.748 404.705C510.837 380.109 493.487 365.793 478.083 355.033C438.542 327.145 396.591 325.138 346.062 348.711C301.912 369.412 257.871 404.541 215.279 438.512C210.797 442.087 206.163 445.782 201.658 449.358C196.367 453.558 192.335 456.745 188.585 459.688C168.509 475.439 144.931 493.431 122.28 507.446C98.2774 522.296 77.6367 531.315 59.1771 535.019C49.4703 536.966 40.3332 537.252 32.0192 535.865C23.0919 534.377 15.2883 530.98 8.82831 525.768C1.82896 520.122 -3.56657 512.35 -7.21166 502.67C-11.1643 492.173 -13.0812 479.334 -12.912 464.517C-12.894 463.175 -12.8602 461.792 -12.8095 460.41C-11.9344 436.248 -6.71106 409.876 -1.66127 384.372C-0.490065 378.456 0.721112 372.341 1.85097 366.386C7.99903 334.072 11.6521 305.635 13.0198 279.445C13.1916 276.152 13.3282 272.837 13.4264 269.59C15.2166 210.383 5.71161 157.481 -14.0588 116.599C-37.3208 68.7295 -71.3461 40.5509 -109.866 37.2496C-131.826 35.4676 -166.862 47.9293 -195.631 79.7833C-212.736 98.7224 -224.9 122.024 -230.807 147.167L-230.965 147.197C-227.878 134.05 -223.124 121.431 -216.839 109.689C-211.037 98.8521 -203.923 88.7362 -195.69 79.6212C-182.966 65.5331 -167.77 54.0573 -151.74 46.4309C-136.889 39.3663 -121.989 36.0224 -109.783 37.0125C-89.5654 38.7445 -70.6593 47.2146 -53.5891 62.1899C-38.1678 75.7193 -24.8157 93.961 -13.9066 116.413C5.87573 157.317 15.3859 210.25 13.5948 269.491C13.4965 272.738 13.3593 276.058 13.1865 279.353C11.8178 305.556 8.16274 334.008 2.0127 366.338C0.883192 372.296 -0.327985 378.411 -1.49919 384.327C-6.548 409.818 -11.7666 436.176 -12.6412 460.311C-12.6908 461.691 -12.7249 463.071 -12.7419 464.411C-13.3523 517.636 13.5543 543.942 59.2328 534.778C100.599 526.481 145.807 493.032 188.567 459.485C192.316 456.542 196.347 453.355 201.637 449.155C206.142 445.579 210.777 441.884 215.259 438.309C236.227 421.585 257.907 404.292 279.845 388.61C304.654 370.875 326.322 357.749 346.087 348.483C359.769 342.1 373.099 337.556 385.71 334.98C397.655 332.539 409.349 331.784 420.47 332.733C440.718 334.463 459.604 341.683 478.208 354.804C493.619 365.571 510.983 379.894 522.903 404.512C534.395 428.376 541.06 458.725 547.506 488.076C548.676 493.399 549.884 498.905 551.091 504.213C567.136 574.857 580.442 653.38 590.637 737.6L590.467 737.741Z" fill="#FFE492"/>
<path d="M589.976 735.085C580.479 650.192 568.197 571.072 553.47 499.929C552.216 493.877 550.979 487.549 549.78 481.43C544.071 452.28 538.169 422.141 526.907 399.153C514.888 374.773 496.614 362.481 480.324 353.672C440.502 331.874 396.515 333.079 345.852 357.355C305.457 376.813 264.988 407.086 225.851 436.363C217.946 442.277 209.773 448.393 201.888 454.193C197.064 457.743 192.805 460.854 188.866 463.7C170.552 476.918 146.536 493.7 123.186 506.25C99.7239 518.858 79.6688 525.814 61.8762 527.511C42.4698 529.364 26.0737 524.297 14.46 512.861C8.00331 506.502 3.04925 498.185 -0.264356 488.14C-3.8419 477.295 -5.53891 464.313 -5.31233 449.559C-5.28925 448.216 -5.25039 446.832 -5.19701 445.451C-4.27329 421.49 0.608021 395.471 5.32897 370.311C6.47094 364.224 7.65222 357.932 8.74979 351.802C14.5646 319.474 17.9471 291.191 19.0883 265.343C19.2328 262.07 19.3421 258.776 19.413 255.55C20.7133 196.729 10.7329 144.351 -9.45106 104.082C-33.2686 56.8015 -67.7539 29.3935 -106.553 26.901C-132.9 25.3369 -167.298 42.6025 -192.143 69.8614C-209.433 88.8305 -221.931 112.168 -228.286 137.352L-228.443 137.375C-225.122 124.215 -220.17 111.584 -213.726 99.8334C-207.77 88.9727 -200.528 78.8332 -192.201 69.697C-179.447 55.7033 -164.3 44.2493 -148.397 36.5725C-133.647 29.4526 -118.755 25.9307 -106.471 26.6608C-86.0958 27.9688 -66.9898 36.0309 -49.6818 50.6206C-34.0554 63.7941 -20.4677 81.716 -9.29819 103.89C10.8967 144.184 20.8832 196.591 19.5824 255.449C19.5114 258.675 19.4011 261.971 19.257 265.246C18.1138 291.111 14.7303 319.406 8.91354 351.749C7.81597 357.879 6.63372 364.174 5.49175 370.261C0.773124 395.408 -4.10589 421.415 -5.02866 445.352C-5.08205 446.733 -5.12022 448.112 -5.1433 449.455C-5.95972 502.27 19.1185 531.36 61.9414 527.274C100.981 523.547 146.01 494.418 188.852 463.497C192.79 460.65 197.05 457.542 201.872 453.991C209.755 448.191 217.929 442.077 225.833 436.164C264.978 406.881 305.455 376.6 345.868 357.134C359.522 350.591 372.854 345.66 385.494 342.471C397.583 339.424 409.437 337.874 420.725 337.864C441.719 337.848 461.25 342.946 480.434 353.446C496.736 362.261 515.027 374.561 527.057 398.969C538.328 421.972 544.232 452.123 549.943 481.284C551.141 487.403 552.38 493.729 553.634 499.78C568.361 570.929 580.645 650.055 590.143 734.953L589.976 735.085Z" fill="#FFE492"/>
<path d="M589.492 732.428C580.697 646.852 569.434 567.134 556.02 495.486C554.788 488.902 553.59 481.964 552.433 475.254C547.399 446.085 542.195 415.921 531.07 393.604C518.901 369.352 499.723 359.122 482.566 352.313C442.227 336.045 397.439 340.521 345.645 366.001C309.268 383.993 272.679 409.718 237.294 434.594C225.127 443.149 213.634 451.229 202.125 459.027C197.442 462.202 193.199 465.044 189.152 467.711C163.05 484.898 142.379 496.762 124.099 505.046C101.167 515.441 81.699 520.334 64.5834 520.002C57.944 519.873 51.6958 518.89 45.9221 517.085C35.6872 513.885 26.9358 508.108 20.1003 499.948C7.7302 485.179 1.74054 463.191 2.29743 434.595C2.3269 433.24 2.36979 431.858 2.42658 430.483C3.39658 406.747 7.93701 381.11 12.3292 356.315C13.4415 350.033 14.5924 343.54 15.6597 337.209C21.1398 304.856 24.2483 276.733 25.1679 251.232C25.285 247.98 25.367 244.707 25.4106 241.501C26.2209 183.067 15.7629 131.215 -4.83263 91.5532C-29.2067 44.8646 -64.1498 18.2253 -103.227 16.5416C-129.922 15.5254 -163.432 32.5368 -188.596 59.8823C-206.087 78.8893 -218.935 102.28 -225.752 127.527L-225.909 127.544C-222.348 114.361 -217.191 101.709 -210.579 89.9392C-204.458 79.045 -197.083 68.8779 -188.653 59.7183C-175.873 45.8308 -160.786 34.4114 -145.018 26.6923C-130.371 19.5213 -115.502 15.8331 -103.148 16.3033C-82.6149 17.1874 -63.308 24.8391 -45.7646 39.0452C-29.934 51.8652 -16.1121 69.4669 -4.67976 91.3617C15.9267 131.048 26.3909 182.929 25.581 241.398C25.5363 244.606 25.4544 247.879 25.3376 251.133C24.4184 276.647 21.3079 304.786 15.8254 337.152C14.7582 343.482 13.6076 349.978 12.4939 356.26C8.1041 381.043 3.56499 406.669 2.59628 430.384C2.5405 431.757 2.49624 433.139 2.46778 434.491C1.42599 487.895 24.0944 518.975 64.6611 519.761C103.278 520.508 149.26 493.761 189.149 467.497C193.194 464.83 197.437 461.991 202.119 458.816C213.627 451.017 225.119 442.939 237.286 434.384C272.677 409.502 309.273 383.774 345.663 365.776C359.309 359.063 372.641 353.74 385.291 349.954C397.543 346.288 409.556 343.942 420.994 342.985C442.806 341.162 462.983 344.136 482.673 352.078C499.845 358.892 519.04 369.132 531.223 393.412C542.358 415.746 547.564 445.923 552.599 475.104C553.757 481.814 554.954 488.751 556.186 495.333C569.601 566.986 580.862 646.712 589.658 732.294L589.492 732.428Z" fill="#FFE492"/>
<path d="M589.012 729.774C580.809 642.293 570.853 564.204 558.576 491.042C557.403 484.062 556.343 476.976 555.218 469.473C550.825 440.145 546.281 409.821 535.238 388.056C522.816 363.733 501.766 355.452 484.815 350.955C444.358 339.977 398.768 347.728 345.441 374.652C313.398 390.917 281.05 412.367 249.765 433.112C233.323 444.015 217.794 454.31 202.364 463.865C197.782 466.705 193.555 469.275 189.442 471.724C163.959 486.875 143.489 497.079 125.016 503.841C102.596 512.049 83.7147 514.879 67.294 512.494C58.8571 511.268 51.1098 508.581 44.2668 504.506C37.022 500.192 30.7904 494.312 25.7451 487.033C14.5626 470.897 9.23472 448.223 9.90992 419.637C9.94446 418.281 9.99243 416.898 10.0519 415.524C11.0649 392.048 15.2666 366.821 19.3291 342.426C20.413 335.917 21.5341 329.185 22.5713 322.625C27.712 290.24 30.5503 262.274 31.2478 237.129C31.3363 233.898 31.391 230.645 31.41 227.461C31.7304 169.414 20.7961 118.088 -0.211029 79.0336C-19.6475 43.0969 -45.4543 19.4492 -74.5313 10.3595C-82.7515 7.78986 -91.2264 6.38463 -99.8995 6.19076C-126.507 5.73101 -159.909 22.8743 -184.999 49.8655C-202.708 68.9187 -215.925 92.3801 -223.22 117.711L-223.375 117.722C-219.569 104.503 -214.197 91.8198 -207.41 80.0253C-201.119 69.0913 -193.597 58.8875 -185.056 49.6988C-172.257 35.9291 -157.236 24.5552 -141.615 16.8039C-126.868 9.48597 -112.416 5.73365 -99.8252 5.95347C-79.1349 6.41365 -59.6281 13.6574 -41.8469 27.4779C-25.8116 39.9392 -11.7516 57.2193 -0.0598661 78.839C20.9591 117.915 31.901 169.27 31.581 227.353C31.5634 230.537 31.5091 233.792 31.4196 237.026C30.7211 262.184 27.8818 290.163 22.7391 322.563C21.7019 329.124 20.5821 335.855 19.4972 342.366C15.436 366.752 11.2357 391.969 10.223 415.426C10.1645 416.798 10.1165 418.181 10.0816 419.534C8.81997 472.988 29.7058 506.781 67.3849 512.254C105.513 517.791 152.646 493.384 189.45 471.504C193.563 469.055 197.79 466.484 202.37 463.647C217.797 454.096 233.325 443.798 249.765 432.897C281.054 412.15 313.408 390.694 345.462 374.424C372.917 360.563 397.712 351.957 421.266 348.113C443.982 344.406 464.804 345.258 484.918 350.716C496.42 353.767 505.278 357.482 512.795 362.405C522.5 368.762 529.892 377.089 535.394 387.863C546.447 409.647 550.992 439.988 555.389 469.33C556.512 476.832 557.575 483.916 558.745 490.896C571.023 564.06 580.979 642.155 589.182 729.641L589.012 729.774Z" fill="#FFE492"/>
<path d="M588.52 727.115C581.039 638.93 572.075 560.257 561.12 486.595C560.036 479.307 559.084 471.851 558.075 463.957C554.297 434.379 550.392 403.793 539.396 382.502C526.772 358.211 504.792 352.154 487.055 349.589C447.007 343.58 400.614 354.605 345.23 383.291C317.901 397.521 290.221 414.93 263.452 431.768C242.291 445.077 222.304 457.649 202.598 468.691C198.142 471.19 193.81 473.557 189.724 475.725C165.107 488.775 144.24 497.571 125.929 502.619C104.003 508.663 85.7074 509.435 69.9971 504.975C62.0042 502.705 54.719 499.024 48.3502 494.032C41.6741 488.798 35.9661 482.093 31.3854 474.1C21.3873 456.655 16.7198 433.294 17.5145 404.665C17.5548 403.314 17.6065 401.929 17.6704 400.548C18.7238 377.376 22.5858 352.603 26.3197 328.647C27.3765 321.869 28.4691 314.858 29.4761 308.024C34.276 275.597 36.8417 247.79 37.3223 223.011C37.3835 219.8 37.4108 216.568 37.4025 213.405C37.233 155.744 25.821 104.944 4.40232 66.4976C-21.0846 20.995 -56.9491 -4.10346 -96.5813 -4.17421C-123.073 -4.09543 -156.35 13.159 -181.356 39.7802C-199.304 58.889 -212.907 82.4372 -220.697 107.882L-220.849 107.885C-216.788 94.6216 -211.194 81.8959 -204.221 70.064C-197.747 59.0807 -190.073 48.834 -181.411 39.6116C-168.6 25.973 -153.655 14.6555 -138.189 6.88188C-123.561 -0.470481 -109.148 -4.37576 -96.5059 -4.41383C-75.6577 -4.37479 -55.9504 2.45577 -37.9337 15.8927C-21.6953 28.0028 -7.40104 44.9626 4.55215 66.3026C25.985 104.769 37.4022 155.6 37.5708 213.296C37.5805 216.459 37.5535 219.694 37.4913 222.907C37.0111 247.7 34.443 275.519 29.6421 307.959C28.6365 314.793 27.5426 321.804 26.4861 328.585C22.7535 352.531 18.8929 377.293 17.8401 400.45C17.7772 401.828 17.7255 403.213 17.6849 404.562C16.1707 459.136 34.7825 494.717 70.0971 504.736C98.7501 512.869 136.768 503.577 189.739 475.498C193.823 473.33 198.153 470.965 202.608 468.466C222.31 457.425 242.295 444.857 263.453 431.547C290.226 414.708 317.91 397.295 345.247 383.062C373.172 368.598 398.121 358.842 421.525 353.231C445.234 347.548 466.7 346.275 487.147 349.344C504.903 351.91 526.908 357.978 539.551 382.306C550.558 403.621 554.466 434.222 558.246 463.813C559.253 471.707 560.207 479.161 561.29 486.446C572.247 560.111 581.21 638.789 588.69 726.98L588.52 727.115Z" fill="#FFE492"/>
<path d="M588.036 724.46C581.282 635.568 573.314 556.308 563.672 482.153C562.694 474.624 561.869 466.862 560.996 458.644C557.822 428.748 554.538 397.834 543.563 376.954C530.718 352.669 507.818 348.846 489.303 348.229C449.839 346.725 403.995 360.614 345.026 391.938C322.878 403.761 300.384 417.293 278.631 430.38C252.21 446.274 227.254 461.288 202.836 473.526C198.435 475.734 194.12 477.825 190.012 479.736C165.83 490.981 145.169 498.069 126.849 501.401C116.587 503.268 106.962 503.936 98.2408 503.387C88.9386 502.799 80.3474 500.807 72.7056 497.467C57.2017 490.688 45.1997 478.477 37.0335 461.176C28.2143 442.49 24.2075 418.446 25.1273 389.705C25.1743 388.345 25.2311 386.959 25.2946 385.586C26.3849 362.77 29.9064 338.508 33.3123 315.048C34.3427 307.945 35.4094 300.601 36.3866 293.437C40.8406 260.957 43.1348 233.308 43.4012 208.906C43.436 205.713 43.4347 202.502 43.3994 199.362C42.741 142.085 30.8526 91.811 9.02041 53.9771C-17.0227 9.06883 -53.346 -15.2586 -93.2573 -14.5261C-136.075 -13.5485 -196.005 29.7749 -218.165 98.064L-218.316 98.0596C-212.773 80.977 -204.822 64.9259 -194.686 50.3479C-185.429 37.0341 -174.534 25.1864 -162.307 15.1377C-150.939 5.79355 -138.943 -1.59203 -126.654 -6.81532C-114.967 -11.7826 -103.392 -14.5336 -93.1847 -14.7666C-72.1789 -15.1514 -52.2716 -8.72892 -34.0182 4.32479C-17.5756 16.0814 -3.04575 32.7214 9.16787 53.7839C31.011 91.6425 42.9068 141.945 43.5667 199.255C43.6024 202.397 43.6037 205.609 43.5692 208.804C43.3028 233.217 41.0067 260.882 36.5517 293.374C35.5744 300.539 34.5078 307.882 33.4764 314.987C30.0722 338.441 26.552 362.692 25.4627 385.495C25.3978 386.868 25.3397 388.253 25.2936 389.61C23.5279 444.845 40.4053 483.066 72.8134 497.237C100.251 509.231 138.593 503.435 190.033 479.514C194.139 477.602 198.452 475.513 202.852 473.305C227.264 461.071 252.217 446.058 278.634 430.165C300.389 417.077 322.886 403.542 345.038 391.718C404.03 360.38 449.895 346.487 489.381 347.99C501.823 348.405 511.454 350.305 519.693 353.973C530.226 358.661 538.082 366.115 543.713 376.761C554.701 397.664 557.986 428.597 561.163 458.51C562.036 466.726 562.86 474.488 563.838 482.013C573.481 556.174 581.449 635.437 588.203 724.334L588.036 724.46Z" fill="#FFE492"/>
<path d="M587.554 721.805C581.535 632.197 574.557 552.353 566.226 477.709C565.363 469.986 564.678 461.964 563.955 453.468C561.372 423.204 558.702 391.908 547.729 371.403C534.502 346.829 509.333 345.63 491.551 346.866C443.376 350.021 390.345 375.79 344.822 400.586C328.439 409.548 311.768 419.255 295.645 428.641C263.301 447.471 232.752 465.256 203.076 478.362C198.71 480.291 194.414 482.103 190.302 483.75C166.487 493.263 146.033 498.639 127.774 500.183C107.074 501.935 89.4591 498.496 75.4165 489.959C60.9909 481.189 49.9778 467.155 42.6859 448.248C35.0368 428.418 31.6907 403.69 32.7387 374.747C32.7911 373.389 32.8516 372.001 32.9198 370.624C34.0398 348.243 37.2217 324.572 40.298 301.678C41.3071 294.175 42.3481 286.419 43.2982 278.851C47.4614 245.855 49.425 219.149 49.4824 194.801C49.49 191.629 49.4616 188.441 49.3987 185.319C48.2466 128.43 35.8806 78.6825 13.6379 41.4539C-12.9625 -2.85763 -49.7448 -26.4168 -89.934 -24.8806C-133.27 -23.0496 -192.137 19.7636 -215.636 88.2457L-215.783 88.2343C-209.953 71.244 -201.816 55.2698 -191.601 40.7561C-182.241 27.4588 -171.311 15.6063 -159.114 5.53211C-147.74 -3.86354 -135.753 -11.3345 -123.484 -16.678C-111.801 -21.7664 -100.174 -24.6845 -89.8613 -25.121C-68.6966 -25.9294 -48.5908 -19.9153 -30.1009 -7.24758C-13.4542 4.15545 1.31127 20.4757 13.7863 41.2584C36.0433 78.5074 48.4155 128.284 49.5653 185.207C49.6273 188.331 49.6559 191.522 49.6497 194.694C49.5937 219.053 47.6267 245.773 43.4625 278.782C42.5125 286.351 41.4704 294.109 40.4614 301.612C37.3868 324.498 34.2066 348.163 33.0852 370.533C33.0169 371.91 32.9561 373.294 32.9037 374.652C30.8672 430.914 46.0061 471.783 75.5324 489.733C102.013 505.831 139.565 503.798 190.332 483.52C194.441 481.875 198.737 480.065 203.099 478.136C232.769 465.033 263.313 447.251 295.651 428.422C311.775 419.036 328.448 409.327 344.834 400.363C375.444 383.692 399.983 371.976 422.056 363.493C448.041 353.507 470.794 347.991 491.619 346.627C504.336 345.743 514.65 346.766 523.149 349.758C534.092 353.609 542.182 360.626 547.879 371.211C558.868 391.741 561.538 423.056 564.122 453.339C564.847 461.833 565.53 469.854 566.393 477.573C574.726 552.22 581.702 632.068 587.723 721.68L587.554 721.805Z" fill="#FFE492"/>
<path d="M587.065 719.146C581.784 628.82 575.8 548.391 568.772 473.261C568.035 465.383 567.498 457.136 566.931 448.405C564.936 417.732 562.874 386.014 551.889 365.851C538.414 341.247 512.28 342.453 493.793 345.503C448.208 352.867 399.261 378.721 344.612 409.229C334.744 414.76 324.695 420.511 314.976 426.074C277.596 447.469 238.946 469.591 203.308 483.194C198.977 484.849 194.695 486.384 190.583 487.757C167.402 495.482 146.579 499.25 128.691 498.956C108.426 498.623 91.4123 493.068 78.1165 482.447C64.7614 471.777 54.7396 455.919 48.3285 435.312C41.841 414.458 39.152 389.047 40.3369 359.785C40.3944 358.426 40.46 357.038 40.5309 355.662C41.6755 333.82 44.514 310.844 47.2587 288.625C48.2477 280.619 49.2703 272.342 50.1945 264.265C53.9996 231.192 55.7001 204.638 55.5471 180.698C55.527 177.555 55.471 174.384 55.3815 171.278C53.7465 114.77 40.9055 65.5485 18.2475 28.9291C-8.90875 -14.7853 -46.1498 -37.5733 -86.6184 -35.2367C-128.93 -32.6468 -187.642 8.06684 -213.114 78.4229L-213.258 78.4044C-207.14 61.5043 -198.818 45.6094 -188.525 31.16C-179.061 17.8763 -168.095 6.02183 -155.93 -4.07829C-133.487 -22.7097 -108.199 -34.1541 -86.5485 -35.478C-65.2271 -36.7079 -44.9205 -31.1042 -26.1927 -18.822C-9.34299 -7.77018 5.65779 8.22759 18.3943 28.7304C41.0652 65.3698 53.9127 114.622 55.5525 171.159C55.6424 174.268 55.6984 177.438 55.7188 180.584C55.8708 204.537 54.1704 231.102 50.363 264.188C49.4377 272.267 48.4164 280.544 47.4275 288.55C44.6834 310.764 41.8456 333.735 40.701 355.566C40.6287 356.942 40.5641 358.328 40.5066 359.687C38.1356 418.231 51.1846 460.603 78.2419 482.223C103.297 502.241 141.105 504.025 190.619 487.524C194.73 486.151 199.008 484.617 203.336 482.964C238.962 469.365 277.607 447.247 314.979 425.855C324.699 420.291 334.748 414.54 344.617 409.01C368.539 395.655 396.244 380.421 422.313 368.62C449.583 356.277 472.981 348.638 493.847 345.267C507.003 343.098 517.716 343.188 526.594 345.543C537.793 348.512 546.35 355.281 552.034 365.66C556.955 374.692 560.529 386.993 562.959 403.266C565.105 417.635 566.117 433.216 567.097 448.281C567.663 457.01 568.2 465.256 568.937 473.132C575.965 548.265 581.949 628.696 587.23 719.025L587.065 719.146Z" fill="#FFE492"/>
<path d="M586.582 716.491C582.046 625.44 577.055 544.426 571.325 468.819C570.717 460.814 570.336 452.371 569.931 443.435C568.522 412.321 567.066 380.147 556.054 360.305C545.746 341.806 526.115 336.52 496.04 344.144C454.041 354.687 409.514 380.363 362.37 407.55C356.5 410.935 350.431 414.435 344.407 417.881C342.046 419.235 339.682 420.594 337.32 421.95C292.459 447.718 246.071 474.365 203.547 488.032C199.248 489.415 194.983 490.674 190.873 491.771C167.951 497.879 147.343 499.884 129.623 497.731C109.78 495.319 93.363 487.651 80.8302 474.94C68.5311 462.463 59.5006 444.78 53.9899 422.382C48.6486 400.671 46.617 374.58 47.9525 344.828C48.0151 343.468 48.0857 342.079 48.1604 340.701C49.3172 319.56 51.8114 297.438 54.2213 276.045C55.1982 267.382 56.207 258.422 57.1113 249.677C60.5528 216.514 61.9915 190.112 61.6336 166.592C61.5859 163.466 61.5029 160.32 61.386 157.234C59.2561 101.113 45.9384 52.4157 22.8679 16.4063C-4.84392 -26.7082 -42.5454 -48.7284 -83.2922 -45.5908C-125.17 -42.2511 -184.013 -1.09481 -210.582 68.6049L-210.725 68.5813C-204.316 51.7694 -195.81 35.9532 -185.441 21.5729C-175.872 8.30319 -164.869 -3.55835 -152.737 -13.6793C-130.328 -32.3745 -104.993 -44.0915 -83.2256 -45.8279C-61.7453 -47.4813 -41.2391 -42.2884 -22.2759 -30.3898C-5.22104 -19.6939 10.0167 -4.01546 23.0147 16.2076C46.0971 52.2393 59.4247 100.964 61.553 157.113C61.6699 160.199 61.7535 163.351 61.8012 166.476C62.1582 190.01 60.7219 216.421 57.278 249.596C56.3751 258.342 55.3639 267.303 54.3884 275.967C51.9778 297.355 49.4856 319.472 48.3291 340.605C48.2544 341.983 48.1835 343.369 48.1209 344.729C45.4061 405.224 56.7634 450.172 80.9651 474.719C104.856 498.95 141.85 504.606 190.921 491.531C195.028 490.433 199.29 489.176 203.588 487.795C246.097 474.134 292.476 447.492 337.329 421.727C339.693 420.369 342.055 419.012 344.415 417.658C350.44 414.211 356.508 410.712 362.378 407.329C409.531 380.137 454.07 354.454 496.088 343.907C509.676 340.461 520.786 339.62 530.054 341.329C541.655 343.469 550.452 349.79 556.204 360.11C561.136 368.997 564.593 381.312 566.773 397.759C568.695 412.271 569.41 428.054 570.101 443.316C570.506 452.249 570.887 460.689 571.495 468.691C577.225 544.301 582.216 625.318 586.752 716.371L586.582 716.491Z" fill="#FFE492"/>
<path d="M586.09 713.833C582.599 629.218 578.487 545.286 573.868 464.372C573.38 456.175 573.15 447.461 572.906 438.238C572.116 408.234 571.218 374.227 560.21 354.754C549.703 336.219 529.445 332.302 498.277 342.778C461.248 355.164 423.165 378.492 382.845 403.189C370.219 410.923 357.161 418.923 344.192 426.522C321.538 439.827 297.214 453.795 272.84 465.823C246.735 478.706 224.144 487.548 203.773 492.861C199.493 493.977 195.246 494.959 191.149 495.776C168.483 500.288 148.101 500.517 130.57 496.456C111.163 491.958 95.3353 482.193 83.5279 467.422C61.8197 439.923 52.4059 393.642 55.5497 329.863C55.6173 328.502 55.693 327.111 55.7704 325.734C56.9222 305.541 59.0635 284.526 61.1352 264.202C62.1097 254.637 63.1188 244.744 64.0066 235.088C67.0824 201.819 68.2556 175.57 67.6986 152.484C67.6232 149.377 67.5129 146.251 67.369 143.189C64.7553 87.4514 50.9589 39.2819 27.4768 3.88021C-0.790924 -38.6371 -38.9521 -59.884 -79.9774 -55.9482C-122.452 -51.7903 -180.087 -11.0458 -208.062 58.7831L-208.201 58.7502C-201.501 42.0241 -192.808 26.2876 -182.365 11.9755C-172.69 -1.2821 -161.651 -13.1484 -149.554 -23.2909C-138.157 -32.8469 -126.194 -40.5777 -113.997 -46.2708C-102.155 -51.7961 -90.6878 -55.1335 -79.9125 -56.1884C-58.2743 -58.263 -37.5672 -53.4805 -18.3675 -41.9679C-1.11059 -31.6208 14.3625 -16.2649 27.6218 3.67834C51.1182 39.1004 64.9221 87.2989 67.5393 143.064C67.6822 146.129 67.7941 149.258 67.8695 152.365C68.4256 175.464 67.2525 201.723 64.1767 235.003C63.2879 244.662 62.2788 254.554 61.3032 264.122C59.2325 284.443 57.0909 305.455 55.9394 325.641C55.8597 327.02 55.7864 328.408 55.7174 329.769C52.5765 393.498 61.9804 439.742 83.6682 467.214C106.107 495.282 143.292 505.077 191.204 495.537C195.298 494.72 199.544 493.74 203.82 492.626C249.365 480.751 298.141 453.352 344.197 426.303C357.166 418.704 370.222 410.706 382.848 402.972C423.176 378.27 461.267 354.936 498.314 342.545C529.531 332.053 549.827 335.981 560.358 354.558C565.289 363.28 568.621 375.577 570.549 392.148C572.248 406.76 572.668 422.705 573.075 438.123C573.319 447.347 573.548 456.058 574.037 464.249C578.657 545.166 582.769 629.098 586.259 713.715L586.09 713.833Z" fill="#FFE492"/>
<path d="M585.609 711.178C582.83 626.323 579.739 541.791 576.422 459.928C576.078 451.689 576.012 442.875 575.94 433.543C575.709 403.02 575.446 368.422 564.378 349.201C553.667 330.629 532.78 328.082 500.527 341.411C466.748 355.345 431.137 378.797 396.697 401.48C379.428 412.853 361.571 424.613 343.99 435.166C316.232 451.843 293.631 464.12 272.862 473.803C247.252 485.742 224.731 493.556 204.015 497.692C199.762 498.543 195.531 499.246 191.44 499.782C170.127 502.575 150.902 501.35 134.245 496.146C133.319 495.856 132.405 495.555 131.496 495.241C112.472 488.678 97.2468 476.789 86.2416 459.908C80.9432 451.728 76.4715 442.05 72.9522 431.14C69.6437 420.887 67.0743 409.225 65.3145 396.478C62.1478 373.547 61.4432 346.86 63.1616 314.9C63.2366 313.525 63.314 312.148 63.3961 310.768C64.5138 291.943 66.2922 272.455 68.013 253.609C69.0054 242.73 70.0331 231.48 70.9197 220.494C73.6582 186.649 74.5421 161.32 73.78 138.372C73.6772 135.286 73.5397 132.18 73.3685 129.139C70.2641 73.7928 55.9914 26.1496 32.0978 -8.64441C3.27457 -50.5619 -35.3467 -71.038 -76.6504 -66.3041C-118.663 -61.4462 -176.421 -20.2936 -205.528 48.9609L-205.664 48.921C-192.107 16.6633 -171.598 -11.6297 -146.357 -32.898C-134.948 -42.5112 -122.994 -50.3273 -110.823 -56.1349C-98.9801 -61.7847 -87.4617 -65.287 -76.5856 -66.5444C-54.7897 -69.0428 -33.8828 -64.6684 -14.4467 -53.5417C3.01337 -43.5458 18.7221 -28.5097 32.2425 -8.84905C56.1507 25.9681 70.431 73.6402 73.5381 129.019C73.7083 132.063 73.8476 135.171 73.9503 138.258C74.7114 161.219 73.8286 186.556 71.0878 220.414C70.2002 231.402 69.1738 242.653 68.1801 253.531C66.4603 272.375 64.6815 291.86 63.5645 310.68C63.4824 312.06 63.4037 313.436 63.3296 314.809C59.6776 382.725 67.2197 430.122 86.387 459.709C113.001 500.534 158.238 503.907 191.501 499.546C195.589 499.009 199.817 498.307 204.069 497.457C251.715 487.943 303.875 459.055 343.993 434.951C361.571 424.403 379.427 412.642 396.693 401.271C431.14 378.585 466.76 355.125 500.555 341.185C514.987 335.221 526.895 332.51 536.955 332.901C549.362 333.382 558.638 338.802 564.524 349.01C569.481 357.618 572.706 369.972 574.386 386.776C575.866 401.583 575.989 417.776 576.108 433.438C576.179 442.767 576.245 451.579 576.59 459.813C579.907 541.676 582.998 626.208 585.778 711.064L585.609 711.178Z" fill="#FFE492"/>
<path d="M585.124 708.523L578.972 455.486C578.772 447.223 578.867 438.328 578.967 428.915C579.299 397.847 579.675 362.636 568.541 343.655C557.773 325.301 535.645 324.089 502.771 340.052C471.168 355.397 438.352 378.684 406.616 401.205C385.93 415.885 364.539 431.063 343.782 443.817C281.394 482.153 233.077 501.211 191.727 503.796C174.574 504.867 158.829 503.183 144.75 498.781C140.483 497.447 136.371 495.864 132.417 494.033C113.768 485.396 99.1436 471.387 88.95 452.4C79.5034 434.799 73.618 412.283 70.9635 383.563C68.8431 360.628 68.7811 334.058 70.7696 299.944C71.8183 281.94 73.3246 263.364 74.7814 245.4C78.0765 204.748 81.4844 162.712 79.8591 124.27C77.3646 65.3076 62.4446 15.0165 36.7128 -21.1683C7.33436 -62.483 -31.7459 -82.1909 -73.3282 -76.6588C-113.587 -71.3031 -171.337 -32.7822 -203 39.1419L-203.134 39.0949C-188.98 6.94645 -168.244 -21.2699 -143.166 -42.5042C-120.491 -61.7039 -95.6671 -73.9181 -73.2657 -76.8972C-51.3119 -79.8168 -30.204 -75.8527 -10.5329 -65.1124C7.13129 -55.4701 23.0746 -40.7514 36.8565 -21.3705C49.5891 -3.46608 59.7478 18.0386 67.0514 42.5478C74.4159 67.2621 78.7828 94.7158 80.0284 124.147C81.6554 162.603 78.2475 204.65 74.9512 245.312C73.4954 263.274 71.99 281.847 70.9409 299.848C68.0384 349.624 67.4815 411.923 89.1036 452.203C113.901 498.396 158.636 505.624 191.798 503.552C233.126 500.971 281.422 481.92 343.786 443.598C364.535 430.848 385.924 415.67 406.607 400.995C438.349 378.47 471.173 355.178 502.792 339.825C535.722 323.834 557.895 325.055 568.69 343.457C573.675 351.956 576.794 364.375 578.224 381.429C579.482 396.44 579.307 412.896 579.137 428.808C579.037 438.222 578.942 447.111 579.142 455.372L585.294 708.408L585.124 708.523Z" fill="#FFE492"/>
<path d="M591.618 691.249C592.315 621.548 591.68 564.613 589.62 512.077C588.627 486.558 587.26 461.318 585.556 437.057C585.041 429.719 584.729 421.987 584.399 413.8C583.571 393.223 582.714 371.947 578.476 355.031C576.206 345.935 573.238 339.002 569.401 333.836C557.668 317.874 535.358 319.028 503.092 337.271C486.401 346.693 469.942 358.207 456.043 368.228C441.328 378.836 426.143 390.86 411.458 402.487C390.349 419.202 368.523 436.485 347.033 450.469C333.943 459.012 321.248 466.334 309.301 472.232C285.397 484.033 261.561 492.462 238.454 497.286C224.209 500.194 210.589 501.5 197.976 501.167C187.109 500.869 176.722 499.411 167.1 496.831C152.699 492.973 139.835 486.498 128.867 477.58C117.207 468.097 107.608 455.779 100.341 440.965C93.8607 427.756 89.0721 412.178 85.7036 393.339C79.4161 358.256 78.901 319.802 79.1552 290.22C79.3059 275.628 79.6935 260.82 80.068 246.5C81.1494 205.26 82.1699 166.308 78.0821 130.049C74.6774 100.642 67.8083 74.0358 57.6628 50.9642C49.8668 33.2339 39.8247 17.5874 27.8169 4.45782C24.9556 1.33304 21.9666 -1.68015 18.9338 -4.49167C5.87129 -16.5846 -10.2739 -26.8473 -29.0513 -34.9954C-47.9625 -43.2571 -65.8646 -46.8198 -83.7794 -45.8807C-93.8966 -45.375 -104.532 -42.9446 -115.394 -38.6601C-153.74 -23.5327 -189.01 10.9596 -209.743 53.6091L-209.901 53.5304C-204.374 42.1608 -197.827 31.3068 -190.44 21.2652C-183.424 11.7275 -175.606 2.85793 -167.202 -5.09768C-151.325 -20.1249 -133.396 -31.831 -115.354 -38.9482C-104.476 -43.2406 -93.8235 -45.6738 -83.6908 -46.18C-65.7577 -47.1187 -47.841 -43.5541 -28.9146 -35.2849C-10.1263 -27.1334 6.02626 -16.8631 19.0976 -4.76213C22.1334 -1.94699 25.1238 1.06663 27.9868 4.19459C40.0047 17.3326 50.055 32.9924 57.8568 50.7378C68.0094 73.8248 74.884 100.454 78.2885 129.88C82.379 166.16 81.3572 205.123 80.2772 246.374C79.9013 260.694 79.5147 275.499 79.3637 290.089C79.1091 319.657 79.6245 358.092 85.9092 393.153C89.274 411.973 94.0568 427.536 100.53 440.729C114.753 469.72 137.19 488.497 167.22 496.537C176.834 499.114 187.215 500.57 198.072 500.867C210.677 501.198 224.287 499.894 238.521 496.988C261.614 492.167 285.435 483.744 309.324 471.95C321.263 466.057 333.95 458.738 347.03 450.203C368.508 436.224 390.329 418.946 411.43 402.237C426.118 390.608 441.307 378.579 456.027 367.967C469.933 357.941 486.4 346.424 503.103 336.996C517.469 328.873 530.054 324.093 540.51 322.787C553.354 321.182 563.135 324.814 569.578 333.58C573.426 338.763 576.404 345.715 578.679 354.832C582.923 371.773 583.781 393.063 584.611 413.653C584.941 421.837 585.253 429.57 585.767 436.902C587.473 461.166 588.84 486.409 589.832 511.933C591.892 564.475 592.526 621.415 591.83 691.121L591.618 691.249Z" fill="#FFE492"/>
<path d="M598.117 673.97C601.14 603.813 601.237 544.346 598.413 492.171C597.05 466.69 594.941 441.947 592.144 418.628C591.401 412.441 590.786 406.061 590.133 399.307C588.179 379.08 586.158 358.165 580.604 342.396C577.812 334.407 574.43 328.395 570.264 324.014C554.312 307.235 525.109 320.446 503.418 334.483C488.065 344.389 472.833 356.255 457.283 368.559C443.672 379.328 430.097 391.247 415.728 403.864C394.398 422.594 372.343 441.96 350.288 457.117C337.174 466.173 324.379 473.548 312.261 479.037C289.685 489.264 267.05 495.61 243.059 498.44C229.634 500.023 216.567 500.056 204.224 498.534C193.818 497.229 183.904 494.826 174.758 491.385C161.148 486.275 148.985 478.623 138.606 468.645C127.706 458.164 118.663 445.002 111.732 429.525C105.658 415.967 101.009 400.047 97.5169 380.858C91.1583 346.048 88.8441 308.938 87.5403 280.496C87.0577 269.967 86.6697 259.404 86.2949 249.185C84.8015 208.493 83.3925 170.054 76.3073 135.828C71.0124 110.248 62.556 87.3752 51.1753 67.8465C42.5643 53.07 32.0151 40.7181 18.9272 30.0846C15.9056 27.6328 12.7655 25.2927 9.59539 23.1294C-4.33883 13.6509 -20.547 6.64625 -40.286 -1.52868C-54.487 -7.4859 -73.4511 -14.4137 -94.2306 -15.1092C-104.052 -15.484 -114.333 -14.0165 -124.786 -10.7528C-161.593 0.743323 -195.872 30.2103 -216.486 68.0748L-216.661 67.9536C-211.195 57.9126 -204.773 48.3964 -197.575 39.665C-190.716 31.3462 -183.111 23.6912 -174.969 16.9058C-159.498 4.01652 -142.124 -5.66987 -124.725 -11.1031C-114.251 -14.3738 -103.952 -15.8433 -94.1131 -15.4685C-73.3129 -14.7746 -54.335 -7.83977 -40.1245 -1.87959C-20.3787 6.29745 -4.16512 13.3038 9.77891 22.7881C12.9507 24.9545 16.0936 27.2954 19.1192 29.7485C32.219 40.3937 42.7787 52.7568 51.3995 67.5497C62.7918 87.098 71.2556 109.99 76.5564 135.595C83.6461 169.847 85.0578 208.296 86.5505 249.004C86.925 259.22 87.313 269.783 87.7965 280.31C89.1017 308.742 91.4142 345.838 97.768 380.63C101.255 399.799 105.899 415.702 111.966 429.244C125.596 459.676 146.778 480.464 174.918 491.031C184.056 494.467 193.96 496.87 204.357 498.171C216.688 499.692 229.743 499.661 243.157 498.078C267.127 495.251 289.744 488.91 312.299 478.693C324.403 473.21 337.181 465.845 350.281 456.798C372.316 441.654 394.363 422.295 415.683 403.576C430.058 390.953 443.635 379.032 457.254 368.257C472.813 355.946 488.051 344.076 503.419 334.159C517.481 325.058 529.986 319.259 540.59 316.917C553.447 314.078 563.501 316.357 570.471 323.688C574.652 328.087 578.046 334.119 580.847 342.132C586.409 357.93 588.431 378.864 590.388 399.107C591.04 405.858 591.657 412.237 592.399 418.421C595.197 441.748 597.306 466.499 598.669 491.988C601.493 544.176 601.397 603.654 598.372 673.826L598.117 673.97Z" fill="#FFE492"/>
<path d="M604.614 656.692C609.984 585.121 610.832 524.795 607.204 472.268C605.47 446.826 602.618 422.581 598.73 400.203C597.9 395.419 597.099 390.368 596.325 385.484C593.128 365.308 589.823 344.447 582.735 329.766C579.422 322.84 575.627 317.746 571.131 314.195C553.877 300.563 524.962 316.188 503.746 331.694C489.388 342.15 475.022 354.598 461.128 366.638L458.526 368.892C445.915 379.812 433.192 392.136 419.721 405.185C398.269 425.963 376.09 447.447 353.543 463.765C340.387 473.348 327.493 480.777 315.219 485.845C293.818 494.683 272.35 499.051 247.661 499.595C234.894 499.876 222.382 498.634 210.47 495.899C200.526 493.585 191.086 490.235 182.413 485.937C156.147 472.944 136.199 450.115 123.12 418.085C117.467 404.238 112.955 387.981 109.331 368.378C103.172 335.263 99.331 302.004 95.926 270.775C95.4685 266.589 95.0227 262.433 94.5797 258.31C89.98 215.538 85.6368 175.138 74.5338 141.617C67.2856 119.733 57.2423 100.596 44.6861 84.7352C35.4672 73.0915 24.1329 63.5991 10.0382 55.7159C6.85978 53.9434 3.56949 52.2742 0.257683 50.7551C-8.08168 46.9519 -17.3338 43.8655 -27.1299 40.5985C-34.9981 37.9741 -43.1335 35.2607 -51.5238 31.944C-67.6852 25.4378 -86.0027 18.0661 -104.687 15.6703C-114.328 14.435 -124.252 14.9373 -134.185 17.1647C-169.437 25.0717 -202.728 49.5177 -223.238 82.5579L-223.42 82.3762C-218.012 73.6646 -211.717 65.4859 -204.709 58.067C-198.007 50.9722 -190.615 44.5268 -182.737 38.9107C-167.671 28.1704 -150.851 20.5092 -134.096 16.7512C-124.141 14.5176 -114.196 14.0137 -104.537 15.2522C-85.8336 17.6511 -67.5077 25.0281 -51.3394 31.5365C-42.9535 34.8491 -34.8191 37.5648 -26.9537 40.1884C-17.1535 43.4567 -7.8987 46.5439 0.447781 50.352C3.76129 51.8743 7.05563 53.5447 10.2367 55.3181C24.3494 63.2095 35.6969 72.7141 44.9284 84.3749C57.4998 100.254 67.5536 119.413 74.8101 141.321C85.9232 174.871 90.2689 215.291 94.8696 258.081C95.3127 262.205 95.7609 266.359 96.216 270.547C99.6203 301.77 103.459 335.021 109.616 368.125C113.237 387.705 117.744 403.947 123.391 417.776C136.452 449.766 156.375 472.563 182.606 485.54C191.27 489.833 200.7 493.18 210.634 495.49C222.533 498.221 235.034 499.463 247.786 499.182C272.45 498.639 293.893 494.275 315.265 485.451C327.514 480.393 340.383 472.977 353.517 463.412C376.035 447.114 398.202 425.642 419.64 404.875C433.118 391.82 445.848 379.491 458.468 368.563L461.07 366.309C474.971 354.263 489.345 341.807 503.719 331.34C525.003 315.783 554.013 300.117 571.348 313.811C575.864 317.379 579.675 322.491 582.999 329.445C590.102 344.157 593.412 365.041 596.611 385.239C597.385 390.122 598.186 395.174 599.015 399.955C602.905 422.344 605.758 446.602 607.493 472.058C611.122 524.607 610.274 584.954 604.902 656.548L604.614 656.692Z" fill="#FFE492"/>
<path d="M611.112 639.41C618.733 567.437 620.377 504.506 615.995 452.368C613.889 426.966 610.296 403.218 605.318 381.783C604.6 378.687 603.879 375.482 603.18 372.382C598.569 351.905 593.801 330.727 584.869 317.142C581.053 311.267 576.844 307.094 572.002 304.379C553.428 293.968 524.812 311.97 504.076 328.905C491.228 339.355 478.484 351.459 466.158 363.165C464.026 365.191 461.896 367.213 459.768 369.225C448.08 380.276 436.137 392.971 423.494 406.41C402 429.256 379.774 452.879 356.797 470.418C343.304 480.717 330.671 487.991 318.173 492.66C292.032 502.423 270.183 502.231 252.257 500.758C240.134 499.76 228.175 497.244 216.712 493.273C207.234 489.951 198.269 485.651 190.065 480.498C165.732 465.232 147.039 440.387 134.508 406.652C129.292 392.618 124.921 376.019 121.141 355.908C117.305 335.633 113.951 316.229 110.706 297.462C108.501 284.707 106.418 272.66 104.31 261.067C96.3413 217.245 88.4666 178.444 72.7618 147.414C63.5619 129.24 51.9338 113.834 38.199 101.626C28.3553 92.8763 16.5822 86.4339 1.15228 81.3472C-2.1799 80.2577 -5.62165 79.2589 -9.0769 78.3808C-14.3331 77.0646 -19.9015 76.0071 -25.7959 74.8902C-37.1068 72.7446 -49.9294 70.3125 -62.7635 65.4179C-67.6502 63.5527 -72.5861 61.5339 -77.3592 59.5792C-89.6364 54.553 -102.332 49.3563 -115.146 46.4483C-124.557 44.3144 -134.127 43.8535 -143.587 45.0803C-177.267 49.4517 -209.569 68.8793 -229.998 97.0483L-230.171 96.7896C-224.822 89.4129 -218.654 82.574 -211.839 76.4611C-205.293 70.5908 -198.114 65.3572 -190.505 60.9069C-175.841 52.3322 -159.576 46.6958 -143.466 44.6052C-133.983 43.3749 -124.391 43.8347 -114.959 45.9749C-102.131 48.8848 -89.431 54.0856 -77.147 59.1139C-72.3752 61.0681 -67.4394 63.087 -62.554 64.9518C-49.732 69.8426 -36.92 72.274 -25.6144 74.4179C-19.7174 75.5357 -14.1476 76.5936 -8.88598 77.9115C-5.42667 78.7908 -1.98221 79.7905 1.35403 80.8813C16.8066 85.9724 28.5957 92.4277 38.4566 101.191C52.2076 113.414 63.8524 128.839 73.0632 147.038C80.1579 161.053 86.2135 177.894 91.5776 198.519C96.3801 216.983 100.272 236.76 104.638 260.774C106.746 272.369 108.829 284.416 111.035 297.171C114.279 315.935 117.634 335.34 121.468 355.611C125.244 375.703 129.611 392.284 134.819 406.303C147.333 439.993 165.999 464.803 190.298 480.047C198.492 485.195 207.447 489.488 216.914 492.807C228.363 496.774 240.309 499.288 252.419 500.282C270.321 501.756 292.141 501.947 318.236 492.201C330.7 487.545 343.3 480.29 356.757 470.017C379.696 452.508 401.904 428.904 423.381 406.077C436.032 392.63 447.981 379.929 459.681 368.865C461.809 366.853 463.938 364.831 466.069 362.807C478.403 351.093 491.156 338.981 504.02 328.518C517.511 317.5 529.87 309.644 540.754 305.167C553.647 299.864 564.235 299.447 572.225 303.928C577.091 306.656 581.32 310.849 585.152 316.747C594.109 330.368 598.882 351.572 603.499 372.075C604.198 375.175 604.919 378.38 605.637 381.473C610.618 402.925 614.212 426.695 616.322 452.116C618.648 479.801 619.292 510.717 618.235 544.003C617.301 573.423 615.013 605.474 611.437 639.262L611.112 639.41Z" fill="#FFE492"/>
<path d="M617.613 622.125C627.572 548.751 629.987 484.941 624.789 432.466C622.309 407.104 617.976 383.855 611.91 363.362C611.622 362.386 611.334 361.411 611.045 360.433C604.747 339.101 598.235 317.043 587.009 304.519C582.66 299.667 578.038 296.411 572.88 294.565C552.984 287.447 524.665 307.793 504.414 326.113C492.53 336.819 480.841 348.971 469.539 360.723C466.744 363.63 463.854 366.634 461.021 369.555C450.228 380.68 439.057 393.672 427.231 407.429C405.717 432.452 383.473 458.325 360.059 477.068C346.513 487.911 333.78 495.239 321.132 499.473C296.216 507.812 275.515 505.575 256.858 501.917C245.353 499.661 233.948 495.867 222.958 490.642C213.949 486.311 205.459 481.065 197.721 475.052C175.341 457.688 157.905 430.828 145.9 395.215C141.092 380.955 136.979 364.501 132.959 343.434C125.279 303.488 119.032 275.09 112.705 251.359C100.119 204.161 87.6474 174.809 71.0039 153.215C59.8611 138.759 46.6471 127.086 31.727 118.52C21.3752 112.577 9.2097 109.016 -7.71996 106.98C-11.1921 106.57 -14.7839 106.242 -18.3978 106.008C-21.8163 105.798 -25.3308 105.683 -29.0518 105.559C-42.7918 105.105 -58.3661 104.591 -73.9949 98.8918C-82.2329 95.8886 -90.3689 92.1729 -98.2372 88.5808C-107.18 84.4987 -116.426 80.2765 -125.602 77.2273C-134.802 74.1704 -144.018 72.7462 -152.987 72.9993C-185.069 73.8987 -216.388 88.3119 -236.764 111.553L-236.906 111.198C-231.613 105.159 -225.573 99.66 -218.953 94.8523C-212.562 90.2097 -205.601 86.1894 -198.259 82.8993C-183.998 76.5064 -168.285 72.8957 -152.824 72.4628C-143.831 72.2118 -134.594 73.6372 -125.372 76.7008C-116.188 79.7526 -106.937 83.9765 -97.9914 88.0622C-90.1258 91.6535 -81.9938 95.3679 -73.7626 98.369C-58.1612 104.057 -42.6038 104.571 -28.8793 105.026C-25.156 105.148 -21.6397 105.266 -18.2189 105.474C-14.601 105.709 -11.0064 106.038 -7.53057 106.447C9.42444 108.488 21.6112 112.053 31.9844 118.01C46.9254 126.588 60.1584 138.277 71.3168 152.755C87.9834 174.377 100.468 203.76 113.065 250.999C119.395 274.738 125.644 303.145 133.326 343.102C137.344 364.152 141.452 380.589 146.254 394.834C158.243 430.396 175.653 457.22 198 474.557C205.728 480.561 214.209 485.799 223.204 490.126C234.182 495.344 245.572 499.134 257.062 501.388C275.692 505.04 296.356 507.276 321.215 498.956C333.815 494.74 346.504 487.435 360.003 476.63C383.366 457.928 405.588 432.082 427.077 407.086C438.912 393.32 450.091 380.318 460.899 369.177C463.731 366.258 466.622 363.254 469.416 360.347C480.728 348.585 492.424 336.425 504.329 325.701C517.545 313.744 529.832 304.86 540.849 299.292C553.754 292.77 564.608 291.009 573.109 294.047C578.296 295.902 582.942 299.175 587.312 304.05C598.575 316.617 605.097 338.705 611.402 360.069C611.691 361.047 611.98 362.025 612.268 362.998C618.34 383.514 622.679 406.791 625.162 432.181C630.363 484.702 627.947 548.562 617.981 621.987L617.613 622.125Z" fill="#FFE492"/>
<path d="M263.7 503.78C262.941 503.542 262.193 503.306 261.46 503.069C250.555 499.569 239.701 494.502 229.206 488.004C220.67 482.665 212.655 476.472 205.38 469.601C194.982 459.795 185.623 447.449 177.56 432.905C169.773 418.859 162.956 402.331 157.297 383.774C151.751 365.594 147.694 345.999 144.778 330.959C137.923 295.848 129.957 265.801 121.101 241.652C106.758 202.542 90.284 176.282 69.2526 159.013C56.5647 148.595 41.6191 140.52 25.9879 135.634C25.7457 135.558 25.5049 135.483 25.2616 135.41C11.7991 131.291 -2.80677 131.627 -16.5834 132.605C-20.1729 132.868 -23.9162 133.211 -27.7114 133.627C-29.7946 133.864 -31.8905 134.123 -34.1081 134.398C-49.7533 136.341 -67.4856 138.542 -85.2238 132.361C-96.0261 128.596 -106.366 123.136 -116.364 117.855C-122.82 114.444 -129.496 110.919 -136.054 107.999C-145.069 103.987 -153.927 101.601 -162.385 100.911C-192.841 98.419 -223.177 107.82 -243.538 126.06L-243.626 125.594C-233.183 116.24 -220.527 109.271 -206.007 104.878C-192.141 100.685 -176.985 99.1065 -162.18 100.319C-153.7 101.013 -144.817 103.402 -135.782 107.425C-129.217 110.346 -122.539 113.875 -116.081 117.287C-106.089 122.566 -95.7557 128.024 -84.9673 131.782C-67.2752 137.948 -49.5725 135.749 -33.9541 133.81C-31.7341 133.534 -29.6381 133.275 -27.5536 133.039C-23.7557 132.623 -20.0087 132.279 -16.4165 132.017C-2.61655 131.038 12.014 130.702 25.51 134.828C41.4314 139.696 56.664 147.871 69.568 158.468C80.4217 167.383 89.8934 178.47 98.5214 192.364C106.83 205.746 114.345 221.727 121.492 241.222C130.355 265.389 138.327 295.458 145.186 330.592C148.098 345.623 152.152 365.203 157.693 383.364C169.176 421.017 185.33 449.851 205.705 469.068C212.969 475.929 220.974 482.114 229.497 487.447C239.98 493.935 250.817 498.998 261.709 502.49C278.752 507.956 299.031 513.163 324.197 505.705C336.934 501.93 349.708 494.58 363.249 483.238C387.03 463.318 409.225 435.148 430.692 407.905C441.734 393.891 452.163 380.654 462.118 369.486C465.306 365.908 468.561 362.212 471.709 358.637C482.344 346.56 493.34 334.074 504.634 322.885C517.584 310 529.8 300.084 540.941 293.412C553.86 285.677 564.977 282.565 573.986 284.163C579.546 285.149 584.61 287.5 589.466 291.352C602.449 301.647 610.795 322.376 618.895 344.518C625.957 363.824 631.181 387.241 633.999 412.241C637.158 439.942 637.763 471.47 635.797 505.947C634.045 536.664 630.252 569.893 624.522 604.712L624.112 604.849C636.416 530.074 639.603 465.383 633.58 412.576C630.767 387.612 625.553 364.229 618.5 344.955C610.414 322.852 602.084 302.163 589.15 291.905C584.32 288.074 579.285 285.737 573.758 284.757C557.204 281.823 532.696 295.518 504.75 323.326C493.477 334.494 482.491 346.97 471.865 359.034C468.717 362.612 465.459 366.309 462.27 369.887C452.334 381.035 441.912 394.261 430.882 408.262C420.349 421.629 409.458 435.453 398.175 448.487C385.384 463.264 373.984 474.788 363.319 483.723C349.718 495.115 336.887 502.497 324.089 506.291C312.802 509.637 301.749 510.724 290.295 509.621C280.6 508.677 271.51 506.221 263.7 503.78Z" fill="#FFE492"/>
<path d="M284.888 511.735C277.989 509.578 271.667 506.794 266.048 504.219C255.716 499.484 245.417 493.141 235.439 485.364C227.381 479.02 219.839 471.883 213.024 464.146C194.351 442.989 179.846 412.953 168.678 372.329C163.807 354.614 160.032 336.012 156.586 318.479C149.744 283.949 140.628 254.836 129.488 231.942C113.105 198.273 93.4073 176.939 67.4976 164.804C52.7348 157.89 35.893 153.564 18.7922 152.29C4.4789 151.224 -10.9135 154.637 -25.4537 158.22C-29.0954 159.126 -32.9911 160.141 -37.0303 161.237C-38.041 161.513 -39.0626 161.798 -40.0969 162.083C-57.0949 166.796 -76.3284 172.129 -95.4966 166.137C-95.82 166.036 -96.141 165.933 -96.4641 165.824C-109.335 161.543 -121.197 154.198 -132.67 147.092C-137.218 144.275 -141.922 141.363 -146.518 138.76C-155.496 133.678 -163.763 130.421 -171.796 128.808C-201.012 122.944 -229.639 127.223 -250.336 140.555L-250.341 139.971C-240.11 133.381 -227.458 128.838 -213.757 126.832C-200.28 124.859 -185.683 125.317 -171.542 128.156C-163.486 129.773 -155.197 133.037 -146.2 138.131C-141.599 140.736 -136.894 143.65 -132.344 146.466C-120.881 153.563 -109.03 160.902 -96.1838 165.175C-76.7655 171.639 -57.2169 166.216 -39.9728 161.433C-38.9398 161.147 -37.9169 160.864 -36.9052 160.585C-32.8623 159.488 -28.9651 158.473 -25.3208 157.568C-10.7556 153.976 4.66386 150.561 19.0164 151.629C36.1435 152.906 53.0134 157.238 67.8009 164.163C80.641 170.176 91.8167 178.391 101.968 189.273C112.422 200.481 121.561 214.267 129.907 231.422C141.06 254.346 150.188 283.495 157.038 318.06C160.482 335.586 164.254 354.177 169.122 371.875C180.275 412.444 194.757 442.435 213.4 463.559C220.206 471.282 227.738 478.411 235.784 484.747C245.748 492.513 256.032 498.849 266.35 503.574C283.711 511.527 302.708 518.762 327.172 512.435C340.046 509.104 352.907 501.71 366.488 489.828C390.683 468.663 413.812 436.707 434.22 408.513C444.487 394.327 454.186 380.928 463.325 369.778C466.623 365.756 469.994 361.586 473.253 357.554C483.451 344.938 493.995 331.894 504.93 320.051C517.628 306.242 529.774 295.293 541.03 287.509C553.957 278.569 565.339 274.11 574.854 274.259C580.802 274.35 586.283 275.782 591.611 278.628C606.496 286.585 616.704 306.103 625.517 326.013C633.656 344.395 639.642 367.309 642.831 392.279C646.408 419.985 646.993 451.821 644.573 486.895C642.407 518.261 637.861 552.079 631.06 587.413L630.614 587.537C645.07 512.43 649.137 445.04 642.375 392.652C639.193 367.73 633.217 344.859 625.095 326.513C616.303 306.651 606.122 287.181 591.3 279.256C586.004 276.426 580.556 275.005 574.647 274.912C557.077 274.637 532.376 290.827 505.092 320.5C494.178 332.318 483.645 345.35 473.458 357.953C470.197 361.987 466.826 366.157 463.526 370.184C454.407 381.308 444.718 394.694 434.46 408.865C414.02 437.102 390.853 469.109 366.579 490.345C352.922 502.292 339.99 509.727 327.043 513.078C315.809 515.983 304.905 516.291 293.709 514.011C290.675 513.409 287.734 512.625 284.888 511.735Z" fill="#FFE492"/>
<path d="M297.424 518.532C297.325 518.501 297.228 518.47 297.129 518.439C287.397 515.349 278.711 510.29 270.649 505.371C260.864 499.404 251.122 491.784 241.687 482.726C234.107 475.383 227.041 467.296 220.683 458.695C203.818 435.912 190.915 404.836 180.075 360.89C176.17 345.067 172.84 328.302 169.617 312.092C169.215 310.063 168.811 308.035 168.406 306.008C161.463 271.455 151.197 243.271 137.893 222.242C119.674 193.449 96.08 176.556 65.7621 170.601C49.1377 167.337 30.6654 166.844 12.3423 169.176C-2.11555 171.018 -16.717 176.658 -34.3045 183.841C-37.8735 185.306 -41.696 186.897 -46.3325 188.85L-46.5918 188.961C-55.5536 192.768 -65.7106 197.081 -76.0782 199.534C-87.9853 202.351 -98.326 202.266 -107.693 199.301C-122.294 194.664 -135.197 185.282 -147.673 176.207C-150.729 173.983 -153.892 171.684 -156.974 169.535C-165.816 163.376 -173.74 159.184 -181.199 156.722C-208.665 147.658 -236.343 147.055 -257.135 155.064L-257.039 154.376C-246.854 150.452 -234.563 148.526 -221.493 148.805C-208.399 149.083 -194.36 151.579 -180.894 156.023C-173.413 158.492 -165.469 162.692 -156.608 168.865C-153.523 171.015 -150.361 173.314 -147.303 175.538C-134.842 184.601 -121.956 193.973 -107.39 198.598C-107.325 198.618 -107.258 198.639 -107.193 198.659C-86.3189 205.185 -64.253 195.814 -46.5106 188.279L-46.2501 188.169C-41.6111 186.214 -37.7887 184.623 -34.2183 183.158C-16.6011 175.964 -1.97365 170.312 12.5291 168.466C30.8839 166.128 49.3863 166.622 66.0388 169.893C80.8746 172.808 93.7554 178.148 105.418 186.222C117.986 194.923 128.753 206.511 138.331 221.651C151.661 242.719 161.946 270.949 168.9 305.559C169.304 307.586 169.708 309.616 170.11 311.645C173.331 327.849 176.66 344.609 180.561 360.42C191.386 404.311 204.27 435.344 221.106 458.088C227.455 466.678 234.512 474.751 242.08 482.086C251.502 491.132 261.231 498.74 271 504.697C288.495 515.371 306.186 524.511 330.155 519.202C343.163 516.319 356.11 508.88 369.732 496.455C394.341 474.011 417.367 439.45 437.685 408.954C447.196 394.678 456.18 381.191 464.539 370.111C467.756 365.848 471.044 361.427 474.225 357.15C484.171 343.777 494.454 329.952 505.234 317.255C517.695 302.519 529.771 290.535 541.124 281.638C554.065 271.499 565.707 265.696 575.724 264.394C581.936 263.587 587.719 264.055 593.388 265.827C593.512 265.866 593.635 265.904 593.758 265.945C611.315 271.615 623.494 291.154 632.145 307.543C641.358 325.004 648.11 347.413 651.671 372.35C655.666 400.065 656.233 432.205 653.354 467.881C650.77 499.895 645.471 534.304 637.601 570.155L637.119 570.262C648.829 516.918 660.769 439.355 651.171 372.771C647.62 347.89 640.883 325.533 631.692 308.114C623.068 291.77 610.928 272.288 593.455 266.648C587.704 264.784 581.844 264.286 575.539 265.107C556.978 267.521 532.082 286.204 505.436 317.714C494.68 330.382 484.409 344.192 474.474 357.549C471.292 361.829 468.001 366.252 464.784 370.518C456.446 381.569 447.472 395.038 437.972 409.3C417.619 439.85 394.549 474.477 369.844 497.009C356.131 509.517 343.097 517.006 330.002 519.906C318.904 522.362 308.242 521.913 297.424 518.532Z" fill="#FFE492"/>
<path d="M306.834 525.217C304.734 524.56 302.638 523.772 300.541 522.851C291.363 518.82 283.336 512.826 275.24 506.52C265.855 499.211 256.92 490.564 247.925 480.086C240.828 471.748 234.236 462.717 228.333 453.24C213.348 429.224 201.977 397.212 191.465 349.447C188.854 337.586 186.449 325.249 184.125 313.318C182.858 306.824 181.551 300.107 180.222 293.532C173.133 258.715 161.717 231.466 146.292 212.539C125.913 187.531 99.0042 175.706 64.026 176.388C45.5461 176.749 25.4433 180.091 5.8929 186.05C-9.81247 190.838 -25.4525 199.568 -42.0113 208.81L-43.1562 209.449C-45.7454 210.899 -48.3657 212.371 -51.0178 213.86C-52.5459 214.72 -54.0838 215.584 -55.6352 216.455C-65.3251 221.924 -75.6723 227.555 -86.2717 231.065C-98.5779 235.14 -109.258 235.699 -118.926 232.772C-135.018 227.895 -148.6 216.329 -161.731 205.137C-163.604 203.539 -165.544 201.888 -167.435 200.305C-176.298 192.882 -183.661 187.903 -190.608 184.631C-216.244 172.558 -242.971 167.063 -263.941 169.557L-263.737 168.786C-242.712 166.285 -215.928 171.788 -190.248 183.882C-183.282 187.163 -175.9 192.156 -167.019 199.592C-165.128 201.177 -163.188 202.828 -161.314 204.427C-148.344 215.481 -134.936 226.906 -119.114 231.852C-118.943 231.905 -118.773 231.959 -118.6 232.01C-98.0588 238.229 -77.0807 227.864 -55.6055 215.746C-54.0541 214.876 -52.5162 214.011 -50.9881 213.152C-48.3351 211.66 -45.7171 210.19 -43.1255 208.738L-41.9806 208.099C-25.3938 198.842 -9.72712 190.097 6.02958 185.293C25.6161 179.321 45.7534 175.974 64.2658 175.613C99.3321 174.929 126.312 186.787 146.747 211.863C162.209 230.838 173.652 258.149 180.757 293.043C182.086 299.62 183.395 306.335 184.66 312.831C186.984 324.76 189.387 337.093 191.998 348.947C202.496 396.657 213.851 428.624 228.81 452.599C234.705 462.061 241.287 471.08 248.374 479.405C257.356 489.868 266.277 498.503 275.649 505.8C289.875 516.88 307.578 530.67 333.14 525.944C346.282 523.515 359.312 516.03 372.976 503.06C398.004 479.304 420.888 442.04 441.078 409.165C449.849 394.883 458.134 381.393 465.749 370.429C468.716 366.157 471.753 361.729 474.69 357.444C484.541 343.078 494.727 328.223 505.532 314.444C517.775 298.772 529.78 285.754 541.214 275.75C554.171 264.414 566.072 257.27 576.588 254.515C583.337 252.746 589.653 252.331 595.899 253.244C604.264 254.466 612.042 258.386 619.681 265.219C626.144 271.003 632.388 278.798 638.769 289.052C649.059 305.59 656.575 327.496 660.506 352.403C664.922 380.124 665.468 412.575 662.131 448.849C659.126 481.513 653.074 516.513 644.139 552.879L643.624 552.963C662.485 476.186 668.289 405.123 659.966 352.867C656.046 328.027 648.55 306.183 638.29 289.695C624.542 267.602 610.983 256.263 595.612 254.016C589.409 253.108 583.136 253.521 576.435 255.275C551.417 261.828 524.204 291.318 505.782 314.902C495.004 328.647 484.83 343.484 474.991 357.834C472.052 362.12 469.013 366.55 466.045 370.825C458.453 381.756 450.179 395.231 441.419 409.495C421.185 442.441 398.253 479.783 373.11 503.647C359.338 516.719 346.204 524.265 332.957 526.713C323.979 528.373 315.373 527.886 306.834 525.217Z" fill="#FFE492"/>
<path d="M314.586 531.931C300.277 527.457 289.256 516.79 279.827 507.664C270.956 499.08 262.56 489.193 254.158 477.44C247.545 468.116 241.428 458.138 235.978 447.782C219.63 416.763 210.393 376.689 202.849 338.002C201.308 330.104 199.809 321.99 198.361 314.145C196.35 303.25 194.27 291.985 192.032 281.056C184.774 245.864 172.211 219.546 154.693 202.833C132.03 181.216 101.805 174.455 62.2901 182.167C41.9448 186.137 20.2127 193.313 -0.557441 202.918C-16.5762 210.325 -32.088 221.149 -48.5098 232.609C-49.6734 233.42 -50.8404 234.236 -52.0114 235.05L-52.6475 235.494C-56.6411 238.284 -60.77 241.166 -64.9401 244.052C-74.9488 251.007 -85.7149 258.069 -96.616 262.629C-109.27 267.921 -120.243 269.103 -130.164 266.241C-147.579 261.219 -161.555 247.32 -175.07 233.879C-176.017 232.937 -176.96 231.999 -177.901 231.07C-186.826 222.235 -193.649 216.518 -200.022 212.532C-223.708 197.722 -249.487 187.334 -270.751 184.034L-270.441 183.203C-249.141 186.507 -223.323 196.909 -199.606 211.74C-193.215 215.737 -186.377 221.466 -177.436 230.316C-176.496 231.246 -175.553 232.184 -174.605 233.129C-161.116 246.543 -147.164 260.411 -129.818 265.418C-108.273 271.633 -85.0487 257.273 -64.9714 243.325C-60.8012 240.439 -56.6724 237.556 -52.6797 234.769L-52.0436 234.325C-50.8716 233.508 -49.7056 232.695 -48.542 231.884C-32.0916 220.404 -16.5534 209.561 -0.480671 202.129C20.3276 192.506 42.0998 185.319 62.4807 181.341C81.2142 177.686 97.5063 177.287 112.287 180.121C128.773 183.284 143.195 190.671 155.152 202.078C172.726 218.843 185.327 245.237 192.606 280.526C194.847 291.461 196.927 302.728 198.938 313.626C200.387 321.472 201.884 329.582 203.424 337.478C210.962 376.123 220.185 416.153 236.504 447.114C241.947 457.455 248.055 467.419 254.659 476.73C263.048 488.465 271.43 498.337 280.288 506.91C293.889 520.072 310.815 536.454 336.111 532.692C349.386 530.717 362.501 523.186 376.205 509.67C401.661 484.562 424.361 444.508 444.39 409.166C452.438 394.967 460.038 381.555 466.946 370.75C469.502 366.753 472.12 362.617 474.653 358.616C484.56 342.967 494.807 326.783 505.818 311.635C517.856 295.017 529.792 280.959 541.292 269.856C554.267 257.327 566.428 248.843 577.439 244.637C584.589 241.906 591.321 240.568 598.026 240.546C607.058 240.516 615.844 243.359 624.14 248.993C631.406 253.928 638.552 261.184 645.378 270.562C656.744 286.175 665.026 307.577 669.331 332.454C674.167 360.185 674.695 392.94 670.898 429.815C667.469 463.128 660.663 498.722 650.667 535.604L650.122 535.663C671.303 457.511 677.92 385.524 668.753 332.964C664.461 308.169 656.206 286.837 644.88 271.275C630.197 251.105 614.786 241.324 597.764 241.381C591.109 241.403 584.423 242.731 577.325 245.441C551.128 255.448 524.144 287.206 506.119 312.088C495.136 327.196 484.903 343.358 475.009 358.987C472.476 362.989 469.855 367.127 467.298 371.128C460.412 381.898 452.821 395.291 444.784 409.473C435.149 426.475 424.229 445.745 412.794 463.437C399.693 483.707 387.777 499.031 376.367 510.287C369.769 516.795 363.154 522.022 356.706 525.822C349.772 529.909 342.772 532.501 335.902 533.522C328.041 534.693 320.984 533.93 314.586 531.931Z" fill="#FFE492"/>
<path d="M321.267 538.727C316.537 537.248 311.922 534.902 307.371 531.674C298.407 525.318 290.98 516.547 284.425 508.812C276.165 499.06 268.082 487.615 260.404 474.797C254.278 464.497 248.635 453.573 243.636 442.323C229.277 410.063 221.83 370.809 214.245 326.559C213.571 322.626 212.893 318.618 212.238 314.74C209.658 299.475 206.99 283.691 203.853 268.584C196.413 232.95 182.703 207.565 163.103 193.133C138.381 174.928 103.881 173.182 60.5665 187.947C38.3398 195.524 14.9782 206.531 -6.99348 219.783C-23.5369 229.761 -39.1969 242.727 -55.777 256.455C-57.4617 257.85 -59.1525 259.249 -60.8517 260.653C-65.0829 264.152 -69.6333 267.906 -74.2305 271.649C-83.8849 279.533 -95.3237 288.379 -106.946 294.191C-119.957 300.699 -131.224 302.506 -141.389 299.714C-159.997 294.607 -174.147 278.253 -187.831 262.438L-188.352 261.837C-195.053 254.096 -202.244 246.143 -209.421 240.436C-231.299 223.04 -255.492 208.149 -277.54 198.505L-277.133 197.638C-255.061 207.292 -230.846 222.196 -208.949 239.608C-201.751 245.332 -194.547 253.297 -187.836 261.049L-187.315 261.651C-173.66 277.43 -159.537 293.746 -141.019 298.83C-119.634 304.702 -96.3243 288.883 -74.3202 270.912C-69.7241 267.17 -65.1763 263.416 -60.9461 259.919C-59.2479 258.517 -57.5561 257.116 -55.8724 255.723C-39.264 241.972 -23.5757 228.983 -6.97794 218.972C15.0359 205.693 38.4417 194.665 60.7096 187.074C81.031 180.149 99.5451 176.787 115.733 177.083C134.229 177.424 150.325 182.541 163.572 192.293C183.246 206.78 197.008 232.256 204.472 268.012C207.61 283.132 210.28 298.922 212.862 314.196C213.517 318.072 214.196 322.08 214.87 326.012C222.447 370.22 229.885 409.432 244.218 441.636C249.211 452.868 254.845 463.776 260.962 474.062C268.63 486.861 276.699 498.289 284.947 508.026C297.876 523.291 313.968 542.285 339.106 539.444C352.513 537.928 365.711 530.354 379.454 516.287C405.348 489.784 428.803 444.968 447.651 408.958C454.992 394.931 461.925 381.682 468.161 371.085C470.126 367.743 472.142 364.298 474.091 360.965C484.217 343.651 494.691 325.747 506.122 308.841C523.869 282.518 550.796 248.302 578.304 234.776C585.899 231.042 593.052 228.78 600.169 227.863C618.834 225.358 636.275 233.509 652.007 252.082C664.448 266.772 673.497 287.669 678.175 312.517C683.431 340.254 683.94 373.317 679.684 410.795C677.732 427.985 674.764 446.07 670.865 464.546C667.14 482.194 662.546 500.294 657.211 518.343L656.636 518.37C680.146 438.841 687.576 365.932 677.556 313.07C672.895 288.316 663.881 267.499 651.488 252.864C635.831 234.375 618.486 226.262 599.938 228.75C592.873 229.66 585.776 231.904 578.237 235.611C550.919 249.042 524.136 283.085 506.477 309.279C495.074 326.14 484.617 344.021 474.503 361.312C472.553 364.645 470.538 368.093 468.57 371.436C462.356 381.998 455.431 395.227 448.101 409.234C438.617 427.355 427.869 447.893 416.426 466.872C403.278 488.68 391.246 505.055 379.643 516.931C373.023 523.706 366.374 529.086 359.882 532.921C352.888 537.053 345.816 539.548 338.867 540.332C332.766 541.024 326.931 540.497 321.267 538.727Z" fill="#FFE492"/>
<path d="M327.169 545.544C321.499 543.772 316.067 540.63 310.777 536.081C302.203 528.715 295.194 518.745 289.009 509.948C281.223 498.875 273.695 486.157 266.636 472.145C260.994 460.877 255.827 449.006 251.279 436.858C238.756 403.45 232.832 363.584 226.559 321.382C226.248 319.294 225.939 317.203 225.626 315.112C222.701 295.504 219.678 275.228 215.66 256.108C208.031 219.992 193.175 195.538 171.504 183.426C144.285 168.21 106.375 171.674 58.8299 193.716C35.0479 204.741 9.38068 219.985 -13.4435 236.639C-30.6775 249.214 -46.6987 264.417 -63.6611 280.513C-65.6694 282.419 -67.6835 284.331 -69.7076 286.244C-73.7543 290.075 -78.5614 294.615 -83.5385 299.24C-92.7677 307.83 -104.944 318.607 -117.281 325.722C-130.645 333.429 -142.208 335.873 -152.631 333.186C-161.177 330.927 -169.471 325.79 -177.988 317.478C-185.301 310.343 -191.751 301.99 -198.826 292.601C-205.254 283.959 -212.094 274.97 -218.845 268.335C-238.842 248.681 -260.882 230.055 -284.348 212.968L-283.855 212.078C-260.374 229.171 -238.323 247.812 -218.314 267.475C-211.545 274.129 -204.695 283.131 -198.259 291.781C-186.402 307.522 -171.647 327.117 -152.243 332.244C-130.003 337.973 -106.154 319.415 -83.6941 298.505C-78.7203 293.885 -73.9156 289.347 -69.8713 285.518C-67.8471 283.604 -65.8331 281.692 -63.8271 279.789C-46.8367 263.666 -30.7876 248.438 -13.4976 235.822C9.37311 219.135 35.0899 203.861 58.9175 192.816C106.607 170.707 144.642 167.243 171.966 182.515C182.442 188.371 191.423 197.173 198.655 208.674C206.417 221.013 212.358 236.771 216.316 255.502C220.34 274.643 223.365 294.93 226.291 314.551C226.602 316.645 226.914 318.734 227.225 320.822C233.491 362.987 239.411 402.815 251.909 436.16C256.451 448.29 261.61 460.145 267.244 471.394C274.294 485.384 281.809 498.085 289.584 509.142C301.804 526.519 317.012 548.146 342.076 546.196C355.653 545.139 368.936 537.521 382.679 522.905C409.036 495.024 432.195 447.085 450.805 408.568C457.461 394.792 463.747 381.78 469.351 371.421C470.508 369.283 471.669 367.134 472.835 364.974C483.373 345.457 494.271 325.274 506.403 306.046C523.815 278.377 550.568 241.841 579.145 224.915C587.118 220.193 594.687 217.008 602.288 215.179C612.872 212.589 623.228 213.054 633.068 216.555C642.051 219.751 650.645 225.487 658.611 233.599C672.127 247.36 681.942 267.752 686.995 292.571C692.675 320.313 693.163 353.689 688.447 391.767C686.284 409.239 683.014 427.62 678.727 446.398C674.621 464.382 669.577 482.779 663.731 501.078L663.13 501.071C688.603 421.334 697.062 345.558 686.338 293.174C681.306 268.463 671.533 248.155 658.077 234.451C641.485 217.551 622.125 211.212 602.09 216.114C594.547 217.93 587.036 221.089 579.126 225.775C550.746 242.585 524.136 278.934 506.811 306.465C494.712 325.643 483.829 345.796 473.305 365.288C472.139 367.449 470.976 369.6 469.82 371.737C464.236 382.058 457.958 395.053 451.312 408.809C432.649 447.437 409.423 495.514 382.896 523.574C376.271 530.619 369.589 536.159 363.037 540.036C355.988 544.207 348.845 546.6 341.807 547.148C336.728 547.538 331.867 547.013 327.169 545.544Z" fill="#FFE492"/>
<path d="M332.535 552.396C326.075 550.377 320.008 546.428 314.193 540.49C305.967 532.089 299.397 520.93 293.602 511.088C286.278 498.649 279.306 484.653 272.875 469.495C267.718 457.276 263.027 444.456 258.93 431.397C248.837 399.245 244.279 362.297 239.454 323.179C238.665 316.784 237.849 310.173 237.017 303.663C234.091 280.791 231.348 261.828 227.475 243.633C219.652 207.01 203.651 183.487 179.916 173.718C150.092 161.441 108.77 170.109 57.1025 199.481C31.4344 214.073 4.09327 233.252 -19.8846 253.488C-37.9483 268.733 -54.4978 286.301 -72.0183 304.9C-74.1886 307.204 -76.3671 309.517 -78.5534 311.829C-82.4512 315.956 -87.5986 321.392 -92.8329 326.819C-114.887 349.718 -140.575 372.362 -163.863 366.651C-164.587 366.47 -165.306 366.266 -166.015 366.045C-183.735 360.505 -196.607 342.703 -209.287 323.356L-210.076 322.141C-216.331 312.498 -222.241 303.391 -228.255 296.226C-250.919 269.225 -273.766 245.272 -291.138 227.422L-290.568 226.513C-273.192 244.37 -250.338 268.328 -227.667 295.339C-221.636 302.522 -215.721 311.642 -209.457 321.296L-208.669 322.51C-195.524 342.566 -182.176 360.963 -163.456 365.651C-140.426 371.298 -114.946 348.826 -93.0557 326.098C-87.8248 320.675 -82.6821 315.244 -78.7853 311.119C-76.598 308.804 -74.4219 306.493 -72.2515 304.189C-54.7034 285.562 -38.1277 267.964 -20.0063 252.671C4.02077 232.392 31.4168 213.175 57.1359 198.553C81.0064 184.982 103.032 175.719 122.603 171.015C145.058 165.617 164.495 166.196 180.371 172.73C204.229 182.549 220.312 206.187 228.172 242.982C232.05 261.204 234.795 280.187 237.726 303.079C238.558 309.589 239.374 316.203 240.164 322.598C244.984 361.677 249.537 398.589 259.612 430.677C263.703 443.721 268.387 456.52 273.537 468.721C279.957 483.86 286.919 497.834 294.232 510.254C305.712 529.752 320 554.018 345.061 552.939C358.76 552.348 372.124 544.686 385.916 529.515C412.737 500.133 435.568 448.987 453.913 407.89C459.899 394.482 465.553 381.815 470.556 371.748L470.67 371.518C481.874 348.977 493.459 325.67 506.697 303.239C518.224 283.667 529.945 266.496 541.533 252.196C554.6 236.075 567.541 223.575 579.999 215.042C588.334 209.333 596.322 205.224 604.418 202.483C626.321 195.005 647.35 199.367 665.229 215.103C672.425 221.435 678.705 229.584 683.899 239.321C689.122 249.115 693.136 260.32 695.831 272.62C701.934 300.369 702.404 334.053 697.226 372.736C692.572 407.506 683.249 445.915 670.267 483.808L669.64 483.763C697.427 402.663 706.72 325.941 695.135 273.271C689.731 248.609 679.2 228.814 664.679 216.037C646.901 200.391 626.008 196.047 604.257 203.475C596.224 206.195 588.301 210.271 580.03 215.935C556.77 231.868 531.572 262.198 507.159 303.646C493.955 326.019 482.387 349.295 471.198 371.803L471.084 372.033C466.099 382.062 460.453 394.711 454.475 408.101C436.073 449.323 413.173 500.623 386.163 530.211C379.514 537.527 372.795 543.221 366.199 547.135C359.086 551.355 351.873 553.649 344.757 553.957C340.52 554.138 336.455 553.622 332.535 552.396Z" fill="#FFE492"/>
<path d="M-177.486 399.471C-185.41 396.994 -192.889 391.623 -200.281 383.118C-207.626 374.668 -213.977 364.187 -219.748 354.121C-220.79 352.291 -221.82 350.467 -222.844 348.655C-227.939 339.638 -232.752 331.121 -237.663 324.123C-257.249 296.226 -276.368 270.679 -294.859 245.976L-297.922 241.882L-297.284 240.962L-294.221 245.057C-275.731 269.764 -256.608 295.312 -237.018 323.216C-232.093 330.231 -227.274 338.759 -222.173 347.788C-221.151 349.599 -220.121 351.423 -219.079 353.251C-207.233 373.914 -194.048 394.472 -174.666 399.066C-150.805 404.633 -123.518 377.743 -102.415 353.698C-97.013 347.55 -91.7109 341.398 -87.6955 336.725C-85.4809 334.15 -83.2741 331.576 -81.0731 329.007C-62.8231 307.717 -45.5852 287.608 -26.511 269.529C-1.33515 245.669 27.7394 222.502 55.3575 204.301C80.9803 187.413 104.771 175.179 126.07 167.939C150.5 159.634 171.598 157.957 188.777 162.953C214.697 170.306 231.944 193.024 240.031 230.469C244.506 251.247 247.158 273.039 249.164 291.618C250.255 301.728 251.253 312.054 252.218 322.04C255.635 357.392 259.169 393.945 267.316 425.204C270.954 439.171 275.165 452.917 279.831 466.059C285.617 482.294 292.026 497.541 298.882 511.376C309.599 532.999 322.936 559.91 348.047 559.69C361.869 559.568 375.315 551.863 389.154 536.132C416.458 505.189 438.912 450.732 456.953 406.976C462.289 394.036 467.328 381.812 471.762 372.089C481.756 350.17 493.547 324.75 506.994 300.446C518.375 279.848 530.023 261.635 541.613 246.315C554.723 228.985 567.926 215.148 580.854 205.185C589.421 198.583 598.066 193.409 606.548 189.803C618.664 184.632 630.585 182.726 641.981 184.14C652.654 185.464 662.702 189.663 671.846 196.618C679.559 202.485 686.297 210.275 691.874 219.775C697.485 229.334 701.79 240.404 704.667 252.676C707.99 266.809 709.749 282.823 709.894 300.272C710.031 316.804 708.722 334.785 706.005 353.713C700.922 389.125 690.823 428.145 676.802 466.547L676.151 466.463C706.259 383.996 716.384 306.331 703.932 253.379C698.239 229.105 686.646 209.302 671.285 197.618C652.292 183.171 629.865 180.823 606.428 190.826C598.013 194.403 589.438 199.537 580.938 206.086C556.578 224.857 531.873 256.73 507.51 300.823C494.098 325.06 482.329 350.437 472.352 372.322C467.934 382.01 462.901 394.214 457.574 407.138C448.673 428.724 438.584 453.192 427.213 476.34C414.018 503.201 401.662 522.992 389.437 536.845C382.764 544.43 376.011 550.281 369.368 554.233C362.192 558.502 354.906 560.699 347.714 560.761C344.086 560.793 340.702 560.264 337.537 559.275C318.584 553.35 307.426 530.834 298.199 512.218C291.334 498.362 284.915 483.093 279.122 466.834C274.448 453.674 270.232 439.907 266.589 425.921C258.425 394.598 254.888 358.006 251.467 322.621C250.501 312.638 249.504 302.315 248.414 292.21C246.412 273.654 243.763 251.892 239.297 231.154C231.254 193.909 214.108 171.323 188.335 164.005C147.966 152.268 93.7521 179.951 55.3792 205.243C27.8165 223.409 -1.19813 246.526 -26.3213 270.338C-45.3387 288.363 -62.5506 308.44 -80.7723 329.697C-82.9733 332.265 -85.1815 334.839 -87.397 337.416C-91.4148 342.091 -96.7204 348.248 -102.126 354.403C-110.985 364.497 -124.337 379.048 -137.943 388.83C-144.55 393.581 -150.863 396.964 -156.708 398.888C-163.224 401.032 -169.41 401.448 -175.09 400.122C-175.896 399.936 -176.694 399.719 -177.486 399.471Z" fill="#FFE492"/>
<path d="M-188.961 432.891C-196.895 430.411 -204.268 424.839 -211.43 415.933C-218.845 406.714 -225.085 395.061 -230.209 384.875C-231.782 381.742 -233.335 378.576 -234.837 375.515C-239.037 366.958 -243.004 358.873 -247.073 352.013C-261.681 327.376 -276.325 303.204 -290.488 279.826C-295.172 272.093 -300.016 264.098 -304.705 256.337L-304.004 255.406C-299.315 263.166 -294.471 271.161 -289.786 278.894C-275.624 302.272 -260.978 326.448 -246.369 351.087C-242.291 357.966 -238.318 366.059 -234.114 374.627C-232.613 377.688 -231.058 380.851 -229.488 383.984C-218.858 405.102 -205.844 428.007 -185.879 432.475C-161.346 437.917 -133.39 407.98 -111.774 381.294C-106.235 374.457 -100.759 367.567 -96.6074 362.328C-94.476 359.64 -92.351 356.952 -90.2304 354.271C-71.1614 330.153 -53.1511 307.374 -33.0171 286.386C-6.83075 259.089 23.9231 231.978 53.5762 210.048C94.8013 179.671 153.179 145.148 197.177 153.179C225.195 158.2 243.603 179.995 251.886 217.96C255.604 235.025 258.29 254.207 260.595 280.162C261.76 293.278 262.703 306.79 263.615 319.854C265.99 353.844 268.444 388.991 275.014 419.741C278.195 434.641 281.931 449.331 286.118 463.405C291.193 480.434 297.05 496.955 303.524 512.509C313.515 536.29 325.947 565.89 351.024 566.451C364.742 566.832 378.656 558.86 392.382 542.762C420.192 510.191 443.153 449.858 459.916 405.806C464.621 393.443 469.064 381.766 472.958 372.443C481.61 351.723 493.329 324.5 507.28 297.666C531.44 251.162 556.48 216.733 581.7 195.341C590.56 187.797 599.635 181.673 608.67 177.136C621.529 170.672 634.229 167.589 646.416 167.978C657.897 168.345 668.676 171.765 678.454 178.145C686.682 183.583 693.872 191.025 699.828 200.261C705.841 209.589 710.439 220.516 713.496 232.74C717.033 246.866 718.892 262.964 719.02 280.589C719.141 297.291 717.713 315.496 714.776 334.701C709.259 370.756 698.385 410.384 683.328 449.3L682.656 449.172C715.094 365.336 726.053 286.724 712.723 233.496C706.685 209.35 694.312 190.072 677.885 179.216C657.574 165.968 633.614 165.616 608.592 178.197C599.63 182.695 590.63 188.77 581.841 196.255C556.787 217.504 531.895 251.74 507.854 298.015C493.941 324.776 482.246 351.946 473.61 372.626C469.732 381.916 465.293 393.578 460.594 405.925C451.929 428.696 442.105 454.507 430.786 479.165C417.603 507.877 405.145 528.92 392.699 543.496C385.994 551.361 379.205 557.373 372.518 561.365C365.269 565.694 357.914 567.786 350.658 567.586C339.378 567.332 329.686 561.362 321.027 549.333C313.501 538.875 307.808 525.324 302.785 513.371C296.301 497.795 290.437 481.251 285.354 464.198C281.16 450.103 277.419 435.392 274.233 420.472C267.649 389.659 265.192 354.474 262.815 320.449C261.904 307.389 260.959 293.884 259.796 280.779C257.494 254.87 254.813 235.724 251.103 218.699C242.872 180.952 224.584 159.29 196.744 154.301C152.934 146.307 94.745 180.728 53.6436 211.013C24.0498 232.898 -6.63962 259.952 -32.7707 287.191C-52.8484 308.12 -70.8329 330.867 -89.8726 354.949C-91.9942 357.632 -94.1192 360.32 -96.2506 363.009C-100.405 368.252 -105.886 375.149 -111.431 381.991C-133.238 408.916 -161.459 439.115 -186.329 433.597C-187.212 433.398 -188.091 433.163 -188.961 432.891Z" fill="#FFE492"/>
<path d="M-200.389 466.331C-222.066 459.555 -234.902 429.387 -246.281 402.642C-249.778 394.424 -253.081 386.661 -256.486 379.905L-311.491 270.794L-310.732 269.854L-255.727 378.965C-252.312 385.737 -249.006 393.509 -245.505 401.739C-233.686 429.518 -220.289 461.004 -197.095 465.888C-171.912 471.195 -143.273 438.216 -121.138 408.895C-113.898 399.305 -106.675 389.502 -99.6879 380.022C-80.58 354.096 -60.822 327.285 -39.527 303.242C-22.618 284.151 -3.39969 264.594 16.0485 246.688C37.3843 227.043 58.7011 209.564 79.4031 194.737C102.228 178.392 123.751 165.696 143.37 157.004C165.07 147.391 184.384 142.724 200.78 143.13C233.624 143.947 254.807 164.911 263.736 205.442C271.159 239.123 272.874 278.438 274.533 316.46C275.977 349.555 277.47 383.774 282.71 414.266C288.763 449.482 297.327 482.913 308.168 513.627C317.3 539.505 328.666 571.715 354.007 573.196C375.409 574.447 396.223 555.53 417.638 515.358C435.854 481.189 450.804 438.574 462.817 404.334C466.91 392.665 470.777 381.643 474.158 372.782C492.794 323.932 511.215 284.555 530.472 252.404C542.486 232.345 554.945 215.01 567.5 200.882C581.525 185.101 596.091 172.843 610.794 164.451C623.515 157.191 636.144 152.978 648.335 151.93C659.939 150.932 670.899 152.808 680.911 157.506C700.601 166.745 715.309 186.378 722.325 212.786C726.076 226.902 728.035 243.087 728.146 260.887C728.252 277.758 726.705 296.188 723.547 315.669C717.596 352.368 705.945 392.606 689.853 432.03L689.16 431.859C723.425 347.903 735.52 266.308 721.512 213.592C706.636 157.611 660.056 137.4 610.753 165.541C561.913 193.418 517.464 261.247 474.868 372.906C471.498 381.738 467.636 392.746 463.548 404.401C451.509 438.715 436.528 481.421 418.228 515.745C408.261 534.44 398.195 548.823 388.309 558.495C382.75 563.932 377.104 568.031 371.527 570.674C365.593 573.487 359.563 574.736 353.602 574.388C351.166 574.245 348.809 573.819 346.532 573.108C338.233 570.513 330.955 564.115 324.433 553.724C317.087 542.017 311.7 526.755 307.372 514.492C296.519 483.735 287.941 450.259 281.879 414.992C276.626 384.436 275.132 350.176 273.687 317.046C272.03 279.073 270.317 239.806 262.913 206.211C254.041 165.956 233.006 145.131 200.388 144.321C134.409 142.681 29.9307 225.965 -39.2218 304.039C-60.4589 328.016 -80.1903 354.789 -99.2726 380.681C-106.263 390.166 -113.491 399.975 -120.737 409.573C-135.433 429.04 -147.472 442.505 -158.622 451.944C-165.581 457.834 -172.225 462.115 -178.369 464.669C-185.2 467.507 -191.659 468.316 -197.568 467.072C-198.521 466.867 -199.463 466.621 -200.389 466.331Z" fill="#FFE492"/>
</g>
</svg>
